<svg width="1192" height="796" viewBox="0 0 1192 796" fill="none" xmlns="http://www.w3.org/2000/svg">
<g opacity="0.05">
<path d="M24.1655 2.61177C23.5994 4.31029 23.0332 8.65094 23.0332 12.4254C23.0332 18.842 23.4107 19.4082 28.6949 19.4082C32.4694 19.4082 34.3566 18.4646 34.3566 16.5773C34.3566 15.0676 34.9228 10.5382 35.489 6.57497C36.6213 -0.219088 36.6213 -0.407812 30.9596 -0.407812C27.5626 -0.407812 24.9204 0.724531 24.1655 2.61177Z" fill="#155EEF"/>
<path d="M102.299 9.02767V18.4639H109.093C114.566 18.4639 115.698 17.8977 114.755 15.4443C114.188 13.7458 113.622 9.59384 113.622 6.00809C113.622 0.157642 113.056 -0.408529 107.961 -0.408529C102.488 -0.408529 102.299 -0.219805 102.299 9.02767Z" fill="#155EEF"/>
<path d="M343.865 0.535027C343.865 1.85609 357.453 22.2383 358.208 22.2383C358.586 22.2383 358.586 20.351 358.208 17.8976C357.642 15.6329 357.265 10.5374 357.265 6.57419C357.076 -0.21987 356.887 -0.408592 350.471 -0.408592C346.885 -0.408592 343.865 -0.0311451 343.865 0.535027Z" fill="#155EEF"/>
<path d="M366.512 12.2352C366.512 19.0292 366.889 24.3135 367.078 23.936C367.455 23.5586 371.419 17.8969 375.759 11.2915L383.686 -0.40934H375.004H366.512V12.2352Z" fill="#155EEF"/>
<path d="M325.557 4.49672C323.859 9.0261 326.879 47.5258 329.143 48.8469C330.276 49.6017 334.427 51.1115 338.391 52.4326C346.506 55.0747 346.883 54.886 354.055 42.9964C356.697 38.2783 356.319 37.3347 345.185 19.7834C333.673 1.66586 328.2 -2.48606 325.557 4.49672Z" fill="#155EEF"/>
<path d="M4.72737 6.57276C1.14161 7.32766 0.386719 8.64872 0.386719 13.933C0.386719 19.9722 0.764167 20.3496 6.80333 20.3496C12.8425 20.3496 13.2199 19.9722 13.9748 12.8007C14.7297 4.87425 14.3523 4.68552 4.72737 6.57276Z" fill="#155EEF"/>
<path d="M123.434 12.236C124 18.8413 124.566 19.4075 130.228 19.9737C135.89 20.5398 136.267 20.3511 136.267 14.1232C136.267 9.02767 135.324 7.32915 132.115 6.38553C123.811 4.30957 122.868 4.87574 123.434 12.236Z" fill="#155EEF"/>
<path d="M304.798 9.59448L298.947 11.8592L308.195 24.8811L317.442 38.0918V31.2977C317.442 19.5968 315.178 7.14107 312.913 7.32979C311.78 7.32979 308.195 8.46214 304.798 9.59448Z" fill="#155EEF"/>
<path d="M408.976 20.5389C408.221 27.7104 408.032 34.127 408.409 34.6932C408.976 35.0706 413.128 29.9751 417.846 23.3698L426.527 11.4802L419.355 9.21547C415.581 8.08312 411.806 7.1395 411.24 7.1395C410.674 7.1395 409.73 13.1787 408.976 20.5389Z" fill="#155EEF"/>
<path d="M615.627 13.7443C615.627 20.1609 615.816 20.3496 623.365 20.3496C630.536 20.3496 631.102 19.9722 629.97 16.009C629.404 13.7443 628.838 10.7247 628.838 9.40362C628.838 8.08255 626.195 7.13893 622.232 7.13893C616.004 7.13893 615.627 7.51638 615.627 13.7443Z" fill="#155EEF"/>
<path d="M639.029 18.6519L640.161 30.1641L627.894 29.4092L615.627 28.6543V34.8822C615.627 40.1664 616.382 41.1101 619.968 41.1101C622.421 41.1101 630.914 41.6762 638.84 42.2424L652.994 43.5635L652.239 31.4851C650.541 8.08337 650.163 7.13976 643.558 7.13976H637.708L639.029 18.6519Z" fill="#155EEF"/>
<path d="M716.783 24.5021C716.217 33.9383 716.028 42.0534 716.405 42.4309C716.783 42.997 724.898 42.6196 734.334 42.0534L751.508 40.5436V34.6932V28.654L739.996 29.4089L728.295 30.3525L729.616 18.6516L730.937 7.13949H724.52H718.104L716.783 24.5021Z" fill="#155EEF"/>
<path d="M739.43 10.1585C736.599 17.5187 738.109 20.3496 744.714 20.3496C750.565 20.3496 751.131 19.7834 751.886 13.7443C752.641 7.32766 752.452 7.13893 746.601 7.13893C742.827 7.13893 740.185 8.27128 739.43 10.1585Z" fill="#155EEF"/>
<path d="M286.681 23.7467C283.85 27.5211 281.963 30.7294 282.152 30.9182C283.661 32.2392 306.874 40.9205 307.441 40.3544C308.007 39.9769 304.421 34.5039 299.892 28.276L291.399 16.7639L286.681 23.7467Z" fill="#155EEF"/>
<path d="M424.639 28.8423C419.732 35.6364 416.524 41.1094 417.467 41.1094C418.411 41.1094 423.318 39.5996 428.225 37.7123C433.131 35.6364 438.793 33.5604 440.68 32.9942C444.266 31.6732 443.511 29.2198 436.906 20.7272L433.509 16.5753L424.639 28.8423Z" fill="#155EEF"/>
<path d="M269.318 21.295L261.77 23.7484L267.243 25.8243C270.262 26.9567 272.716 27.7116 272.904 27.5229C273.093 27.1454 274.791 25.0694 276.679 22.616C280.642 17.8979 280.076 17.8979 269.318 21.295Z" fill="#155EEF"/>
<path d="M448.795 23.3701C451.249 26.7672 453.136 27.8995 455.967 27.1446C458.231 26.5785 460.496 26.0123 461.44 26.0123C465.592 26.0123 461.817 22.6153 455.401 20.728C445.587 17.7084 445.209 17.7084 448.795 23.3701Z" fill="#155EEF"/>
<path d="M694.325 32.806C692.438 35.2594 691.494 38.279 692.249 39.4113C693.004 40.7324 694.514 39.0339 696.212 35.4481C699.42 27.7104 698.665 26.9555 694.325 32.806Z" fill="#155EEF"/>
<path d="M228.365 33.9381L215.72 37.9013L225.911 50.9233C231.573 58.2835 236.291 64.7001 236.291 65.6437C236.291 66.3986 229.686 68.8521 221.759 71.3055C213.644 73.5702 206.473 76.0236 205.529 76.7785C204.585 77.9108 214.965 94.1411 219.872 99.0479C220.438 99.4253 225.911 92.4426 232.328 83.5725L243.84 67.531V48.6586C243.84 38.2788 243.274 29.7862 242.519 29.9749C241.575 29.9749 235.347 31.8622 228.365 33.9381Z" fill="#155EEF"/>
<path d="M481.633 48.6586V67.9084L493.145 83.7612L504.657 99.8027L512.772 88.8567C517.302 82.8176 520.51 77.3446 519.755 76.7784C519 76.0235 511.829 73.5701 503.902 71.3054C495.787 68.852 489.182 66.3986 489.182 65.6437C489.182 64.7001 493.9 58.0947 499.373 50.9232L509.753 37.5238L498.995 34.5043C493.145 32.8057 486.728 31.1072 485.03 30.5411C482.01 29.5974 481.633 31.296 481.633 48.6586Z" fill="#155EEF"/>
<path d="M672.621 34.3168C673.753 36.9589 675.452 39.2236 676.395 39.2236C678.283 39.2236 675.074 32.4296 672.244 30.7311C671.111 29.9762 671.3 31.6747 672.621 34.3168Z" fill="#155EEF"/>
<path d="M662.053 37.3351C663.375 44.5066 664.129 46.0164 665.639 44.5066C666.205 43.9405 665.262 40.7322 663.752 37.1464L660.732 30.7298L662.053 37.3351Z" fill="#155EEF"/>
<path d="M251.389 45.8279V57.1514L255.163 52.4333C257.239 49.7911 258.938 46.7716 258.938 45.8279C258.938 44.6956 257.239 41.8647 255.163 39.2226L251.389 34.5045V45.8279Z" fill="#155EEF"/>
<path d="M468.61 41.8654C466.534 45.4512 466.723 46.961 468.61 50.358C472.385 56.2084 473.139 55.2648 473.139 45.8286C473.139 36.2037 472.007 35.2601 468.61 41.8654Z" fill="#155EEF"/>
<path d="M703.573 40.3551C702.818 42.0536 702.818 43.9408 703.384 44.507C703.761 45.0732 704.705 43.9408 705.46 42.2423C706.215 40.5438 706.215 38.6566 705.649 38.0904C705.271 37.5242 704.328 38.6566 703.573 40.3551Z" fill="#155EEF"/>
<path d="M428.413 46.5836C418.411 50.3581 409.73 53.9438 409.352 54.3213C408.975 54.8874 408.031 59.6055 407.276 65.0785L405.955 74.8922L413.693 76.9681C418.033 78.1005 422.563 79.4215 423.884 79.9877C425.016 80.3652 432.188 73.1937 439.737 63.7575C449.928 51.1129 453.136 45.64 452.381 42.9978C450.871 38.091 449.928 38.2797 428.413 46.5836Z" fill="#155EEF"/>
<path d="M192.886 44.3191C187.224 46.0176 182.129 47.5274 181.751 47.9048C180.053 49.2259 197.793 69.4194 200.057 68.4758C201.378 68.0983 207.04 66.2111 212.702 64.7013L223.082 61.6817L215.344 51.3019C211.003 45.6402 206.663 41.1108 205.342 41.2995C204.209 41.2995 198.548 42.8093 192.886 44.3191Z" fill="#155EEF"/>
<path d="M511.64 49.0365C508.243 53.5659 504.658 58.0953 503.714 59.4163C502.582 60.9261 505.79 62.6246 515.037 65.4555C522.02 67.5315 528.248 68.6638 529.003 67.9089C537.496 57.7178 544.29 48.4703 543.723 47.9042C542.591 46.9605 522.02 41.1101 519.756 41.1101C518.623 41.1101 515.037 44.6959 511.64 49.0365Z" fill="#155EEF"/>
<path d="M679.416 48.6582C677.718 51.3003 674.887 52.4327 669.98 52.4327C662.997 52.4327 662.809 52.6214 662.809 59.2267C662.809 64.3223 661.487 66.9644 657.902 69.7953L653.184 73.7585L657.902 78.6653C661.11 82.0623 662.809 85.8368 662.809 89.8C662.809 95.4617 663.375 95.8392 669.036 95.8392C673.377 95.8392 676.774 97.349 679.794 100.557L684.323 105.275L689.23 100.557C692.438 97.5377 696.401 95.8392 700.176 95.8392C705.649 95.8392 706.215 95.273 706.215 89.8C706.215 86.2143 707.914 82.0623 710.367 79.4202L714.33 75.0796L710.367 70.7389C707.725 67.908 706.215 63.9448 706.215 59.4155C706.215 52.6214 706.026 52.4327 699.044 52.4327C694.137 52.4327 690.551 51.1116 688.286 48.6582C686.399 46.5822 684.134 44.8837 683.379 44.8837C682.436 44.8837 680.737 46.5822 679.416 48.6582ZM687.343 55.2635C688.664 56.7733 692.061 58.0944 695.08 58.0944C699.798 58.0944 700.553 58.8493 700.553 63.1899C700.553 65.8321 701.874 69.7953 703.762 71.6825C706.592 74.8908 706.592 75.2683 703.762 78.4766C701.874 80.3638 700.553 84.327 700.553 86.9692C700.553 91.3098 699.798 92.0647 695.08 92.0647C692.061 92.0647 688.664 93.3858 687.343 94.8956C685.078 97.5377 684.512 97.5377 681.681 94.8956C679.982 93.3858 676.208 92.0647 673.566 92.0647C669.225 92.0647 668.47 91.3098 668.47 86.9692C668.47 84.1383 666.772 80.1751 664.696 77.9104L660.921 73.7585L664.696 70.3615C666.772 68.4742 668.47 64.8885 668.47 62.4351C668.47 59.038 669.603 58.0944 673 58.0944C675.453 58.0944 678.473 56.7733 679.794 55.2635C681.115 53.7538 682.813 52.4327 683.568 52.4327C684.323 52.4327 686.022 53.7538 687.343 55.2635Z" fill="#155EEF"/>
<path d="M680.358 66.5874C675.829 68.4746 673.942 73.1927 675.451 78.477C677.339 86.2147 691.682 86.2147 693.758 78.477C695.834 69.7957 688.285 63.0016 680.358 66.5874Z" fill="#155EEF"/>
<path d="M356.508 55.2645C353.489 59.9825 350.281 64.1345 349.526 64.7006C348.582 65.2668 343.298 63.9457 337.825 61.8698C332.352 59.7938 327.634 58.0953 327.445 58.0953C327.067 58.0953 326.879 63.5683 326.879 70.1736V82.0633L318.009 84.5167C312.913 85.8377 308.384 87.5362 307.44 88.2911C306.685 88.8573 309.139 93.5754 312.724 98.2935L319.519 107.164L312.913 115.467C309.139 119.997 306.119 124.149 306.119 124.715C306.119 125.47 310.837 127.357 316.499 128.867L326.879 131.886V144.153V156.232L336.315 152.457C341.599 150.381 346.884 148.683 348.205 148.683C349.526 148.683 352.923 152.457 355.754 157.175C358.773 161.893 361.981 165.668 362.736 165.668C363.491 165.668 366.7 161.893 369.719 157.175C372.55 152.457 375.947 148.683 377.268 148.683C378.589 148.683 383.873 150.381 389.346 152.457L398.971 156.232L398.216 144.531L397.65 132.641L406.143 129.81C410.861 128.112 415.768 126.413 417.089 125.847C418.787 125.281 417.466 122.261 412.748 116.034L405.765 106.786L411.238 99.992C420.297 88.6686 420.297 88.8573 408.974 85.2716L398.594 81.8745V69.9849C398.594 63.3796 398.216 58.0953 397.65 58.0953C397.273 58.0953 392.555 59.7938 387.27 61.8698C381.986 63.9457 376.891 65.2668 375.947 64.7006C375.192 64.1345 371.984 59.9825 368.964 55.2645C366.133 50.5463 363.302 46.7719 362.736 46.7719C362.17 46.7719 359.339 50.5463 356.508 55.2645Z" fill="#155EEF"/>
<path d="M600.34 63.0016L588.262 75.0799L599.963 86.7808C613.362 99.9915 611.852 100.18 630.347 83.3838L640.161 74.1363L626.384 62.4354L612.418 50.7345L600.34 63.0016Z" fill="#155EEF"/>
<path d="M743.015 62.0577C735.844 68.2856 729.805 74.1361 729.805 74.891C729.805 76.7782 754.339 97.7266 756.603 97.7266C757.547 97.7266 763.209 92.631 769.437 86.4031L780.76 75.0797L768.493 62.8126L756.226 50.7343L743.015 62.0577Z" fill="#155EEF"/>
<path d="M261.58 57.5283C259.504 60.5479 257.239 63.7562 256.484 65.0773C255.541 66.3983 259.504 68.663 267.808 71.4939C274.979 73.7586 281.962 76.0233 283.472 76.5894C284.982 77.3443 282.151 72.6262 276.866 66.5871C271.771 60.3592 267.053 54.6975 266.487 53.7538C265.92 52.9989 263.656 54.6975 261.58 57.5283Z" fill="#155EEF"/>
<path d="M450.87 63.9452C445.963 69.9843 442 75.2686 442 75.8348C442 76.4009 448.417 74.5137 456.154 71.8716C466.157 68.6633 469.931 66.3986 468.799 64.8888C467.855 63.7564 465.59 60.5481 463.515 57.906L459.74 52.8105L450.87 63.9452Z" fill="#155EEF"/>
<path d="M646.765 54.321C651.861 56.5857 653.37 56.5857 653.37 54.321C653.37 53.1887 651.106 52.4338 648.275 52.6225C643.557 52.6225 643.368 52.8112 646.765 54.321Z" fill="#155EEF"/>
<path d="M715.65 54.321C715.65 56.5857 717.16 56.5857 722.256 54.321C725.653 52.8112 725.464 52.6225 720.935 52.6225C717.915 52.4338 715.65 53.1887 715.65 54.321Z" fill="#155EEF"/>
<path d="M641.859 64.3228C644.313 67.1537 647.144 68.8522 647.899 68.2861C650.541 66.7763 649.975 65.8326 643.558 62.6243L637.33 59.416L641.859 64.3228Z" fill="#155EEF"/>
<path d="M124 67.5315C119.659 72.0609 117.017 73.1932 110.789 73.1932H103.051L103.806 79.9873C104.561 85.649 103.618 87.725 98.3334 93.198L92.1055 99.6146L98.3334 106.031C103.618 111.504 104.561 113.58 103.806 119.242L103.051 126.036H110.789C117.017 126.036 119.659 127.168 124 131.698L129.473 137.359L135.323 131.698C139.853 127.168 142.872 126.036 149.1 126.036H157.027V118.11C157.027 112.07 158.159 108.862 162.122 104.899L167.218 99.6146L162.122 94.3303C158.159 90.3671 157.027 87.1588 157.027 81.1196V73.1932H149.1C142.872 73.1932 139.853 72.0609 135.323 67.5315L129.473 61.8698L124 67.5315ZM146.269 76.9677C153.063 76.9677 153.252 77.1564 153.252 83.9505C153.252 88.4799 154.762 92.4431 157.404 95.2739L161.367 99.6146L157.404 103.955C154.762 106.786 153.252 110.749 153.252 115.279C153.252 122.073 153.063 122.261 146.081 122.261C140.796 122.261 137.588 123.583 134.38 126.98L129.85 131.698L124.943 126.98C121.546 123.771 117.961 122.261 113.054 122.261C106.26 122.261 106.071 122.073 106.071 115.279C106.071 110.749 104.561 106.786 101.919 103.955L97.9559 99.6146L101.919 95.2739C104.561 92.4431 106.071 88.4799 106.071 83.9505C106.071 77.1564 106.26 76.9677 113.243 76.9677C118.527 76.9677 121.735 75.6466 124.943 72.2496L129.473 67.5315L134.38 72.2496C137.777 75.4579 141.362 76.9677 146.269 76.9677Z" fill="#155EEF"/>
<path d="M126.831 79.6107C125.698 81.1205 121.924 82.6303 118.715 83.0078C113.62 83.574 112.676 84.3288 112.11 89.2357C111.733 92.2553 110.223 96.2185 108.713 97.917C106.26 100.559 106.26 101.314 108.713 103.201C110.223 104.522 111.733 108.297 112.11 111.505C112.676 116.601 113.431 117.544 118.338 118.11C121.546 118.488 125.51 120.186 127.397 121.696C130.228 124.527 130.983 124.527 134.002 121.696C135.889 119.809 139.853 118.488 142.495 118.488C146.835 118.488 147.59 117.733 147.59 113.015C147.59 109.995 148.911 106.598 150.421 105.277C151.931 103.956 153.252 101.88 153.252 100.559C153.252 99.238 151.931 97.1621 150.421 95.841C148.911 94.5199 147.59 91.1229 147.59 88.1033C147.59 83.3852 146.835 82.6303 142.117 82.6303C139.098 82.6303 135.701 81.3093 134.38 79.7995C131.36 76.2137 129.85 76.2137 126.831 79.6107ZM136.267 92.0665C138.343 92.0665 140.041 99.8042 138.909 104.522C137.022 112.071 122.679 111.694 120.791 103.956C118.904 96.4072 125.51 89.0469 132.115 91.3116C133.625 91.6891 135.323 92.0665 136.267 92.0665Z" fill="#155EEF"/>
<path d="M723.766 63.7572C721.313 64.7009 719.426 66.0219 719.426 66.5881C719.426 68.2866 722.445 67.5317 726.22 64.7009C730.372 61.6813 729.806 61.3038 723.766 63.7572Z" fill="#155EEF"/>
<path d="M458.043 80.3645L442.945 85.2713L453.514 88.2909C475.783 94.8962 474.085 95.2737 474.085 84.5164C474.085 79.4209 473.896 75.0802 473.707 75.269C473.33 75.4577 466.347 77.7224 458.043 80.3645Z" fill="#155EEF"/>
<path d="M252.332 85.4596C252.332 90.1777 252.332 93.9521 252.332 93.9521C252.332 93.7634 258.937 91.8762 266.864 89.6115L281.584 85.2708L268.751 81.1189C261.58 78.8542 254.974 76.967 254.031 76.967C253.087 76.967 252.332 80.7415 252.332 85.4596Z" fill="#155EEF"/>
<path d="M642.803 84.8941C639.217 88.8573 639.217 88.8573 643.935 86.4039C650.163 83.1956 650.163 83.1956 648.087 81.8745C647.143 81.3084 644.69 82.6294 642.803 84.8941Z" fill="#155EEF"/>
<path d="M720.37 82.6299C719.804 83.7622 720.748 85.0833 722.635 85.8382C724.522 86.4044 726.976 87.348 727.919 87.9142C729.052 88.4803 728.108 87.1593 726.221 84.8946C722.069 80.1765 721.88 80.1765 720.37 82.6299Z" fill="#155EEF"/>
<path d="M832.658 83.5719C831.337 85.0817 827.94 86.4028 824.92 86.4028C820.202 86.4028 819.447 87.1577 819.447 91.6871C819.447 94.7066 817.749 98.6698 815.673 100.557L811.898 103.954L815.673 108.106C817.749 110.371 819.447 114.334 819.447 117.165C819.447 121.505 820.202 122.26 824.543 122.26C827.185 122.26 831.148 123.581 833.036 125.469C836.244 128.3 836.621 128.3 839.83 125.469C841.717 123.581 845.68 122.26 848.322 122.26C852.663 122.26 853.418 121.505 853.418 117.165C853.418 114.334 855.116 110.371 857.192 108.106L860.967 103.954L857.192 100.557C855.116 98.6698 853.418 94.7066 853.418 91.6871C853.418 87.1577 852.663 86.4028 847.945 86.4028C844.925 86.4028 841.528 85.0817 840.207 83.5719C838.886 82.0621 837.187 80.7411 836.433 80.7411C835.678 80.7411 833.979 82.0621 832.658 83.5719Z" fill="#155EEF"/>
<path d="M482.01 89.046C482.576 95.4626 483.331 96.7837 487.86 97.916C490.691 98.6709 492.956 98.8596 492.956 98.4822C492.956 98.1047 490.313 94.1415 487.105 89.6121L481.443 81.6857L482.01 89.046Z" fill="#155EEF"/>
<path d="M238.555 89.6116C231.95 99.4252 231.95 99.614 238.178 97.538C242.707 95.8395 243.839 94.3297 243.839 89.989C243.839 83.195 243.084 83.195 238.555 89.6116Z" fill="#155EEF"/>
<path d="M274.225 96.5943C255.918 101.69 252.521 103.2 252.144 106.597C251.766 109.239 252.71 111.126 254.786 111.692C267.997 115.655 293.097 122.261 294.607 122.261C295.55 122.261 299.136 118.864 302.345 114.712L308.195 107.163L302.156 98.6702C298.759 93.9522 295.928 90.1777 295.928 90.3664C295.739 90.3664 286.114 93.1973 274.225 96.5943Z" fill="#155EEF"/>
<path d="M646.767 94.8957L641.105 97.5378L647.333 97.7266C651.485 97.7266 653.373 96.7829 653.373 94.8957C653.373 93.3859 653.184 92.0648 652.995 92.2536C652.618 92.2536 649.975 93.5746 646.767 94.8957Z" fill="#155EEF"/>
<path d="M481.633 107.353C481.633 108.297 482.576 108.674 483.52 108.108C484.652 107.542 485.407 106.598 485.407 106.032C485.407 105.655 484.652 105.277 483.52 105.277C482.576 105.277 481.633 106.221 481.633 107.353Z" fill="#155EEF"/>
<path d="M644.879 106.409C642.803 106.786 635.443 107.541 628.46 108.108C615.627 109.429 615.627 109.429 615.627 115.09V120.752L628.083 119.997L640.35 119.242L639.029 131.132L637.896 143.021H643.558C650.163 143.021 650.352 142.267 652.239 117.921C652.994 108.674 652.617 105.277 650.918 105.465C649.597 105.654 646.955 106.032 644.879 106.409Z" fill="#155EEF"/>
<path d="M662.809 108.107C662.809 109.616 663.186 110.938 663.563 110.938C663.941 110.938 664.696 109.616 665.451 108.107C666.017 106.597 665.639 105.276 664.696 105.276C663.563 105.276 662.809 106.597 662.809 108.107Z" fill="#155EEF"/>
<path d="M703.572 109.428C705.459 116.222 708.479 120.374 707.346 114.712C706.78 112.07 706.214 108.862 706.214 107.541C706.214 106.408 705.27 105.276 704.138 105.276C703.006 105.276 702.628 106.975 703.572 109.428Z" fill="#155EEF"/>
<path d="M716.405 116.978C716.971 123.205 717.537 131.698 717.537 135.661C717.537 142.833 717.726 143.021 724.143 143.021H730.937L729.616 130.943L728.295 118.865L739.618 119.808L750.942 120.941L751.885 115.09L752.64 109.24L740.373 108.108C733.579 107.541 725.086 106.786 721.501 106.22L715.084 105.465L716.405 116.978Z" fill="#155EEF"/>
<path d="M672.433 114.712C671.301 118.109 671.301 119.996 672.244 119.43C675.453 117.543 678.095 111.315 676.208 110.182C675.264 109.616 673.565 111.692 672.433 114.712Z" fill="#155EEF"/>
<path d="M694.136 115.656C695.834 118.298 697.533 120.374 697.91 120.374C698.288 120.374 697.533 118.298 696.4 115.656C695.268 113.014 693.57 110.938 692.626 110.938C691.682 110.938 692.437 113.014 694.136 115.656Z" fill="#155EEF"/>
<path d="M235.537 120.185C241.576 130.376 243.841 131.32 243.841 123.394C243.841 118.864 242.897 116.6 241.199 116.6C239.689 116.6 237.047 116.033 235.159 115.279C232.14 114.146 232.329 114.524 235.537 120.185Z" fill="#155EEF"/>
<path d="M485.973 116.6C482.765 117.921 481.633 119.997 481.633 124.149C481.633 127.168 482.01 129.811 482.388 129.811C482.765 129.811 485.219 126.414 488.049 122.262C493.145 114.335 492.956 113.769 485.973 116.6Z" fill="#155EEF"/>
<path d="M503.526 116.411C502.96 117.355 503.715 118.487 505.224 119.053C506.923 119.808 507.489 119.242 506.734 117.355C505.602 114.335 504.847 114.147 503.526 116.411Z" fill="#155EEF"/>
<path d="M251.389 128.867C251.389 138.869 251.577 138.869 269.506 132.83L282.528 128.49L274.036 126.225C269.317 124.904 263.09 123.205 260.07 122.262C251.766 119.431 251.389 119.808 251.389 128.867Z" fill="#155EEF"/>
<path d="M457.287 124.526L443.51 128.489L457.287 132.83C465.024 135.283 471.441 137.359 471.441 137.359C471.63 137.359 472.196 133.585 472.573 128.867C472.951 124.149 472.762 120.374 472.196 120.563C471.63 120.563 465.024 122.45 457.287 124.526Z" fill="#155EEF"/>
<path d="M622.798 129.433C616.004 130 615.627 130.377 615.627 136.605C615.627 142.644 616.004 143.021 622.044 143.021C627.894 143.021 628.46 142.455 629.781 136.227C630.347 132.453 630.725 129.245 630.347 129.056C629.97 129.056 626.573 129.056 622.798 129.433Z" fill="#155EEF"/>
<path d="M738.297 132.83C738.297 140.568 740.373 143.021 746.601 143.021C752.074 143.021 752.451 142.455 752.451 136.605C752.451 130.566 752.074 130 745.468 129.433C739.052 128.867 738.297 129.245 738.297 132.83Z" fill="#155EEF"/>
<path d="M414.069 136.793L405.766 139.624L407.087 149.438C407.842 154.722 408.596 159.251 408.785 159.44C408.974 159.817 418.033 163.214 428.979 167.366C448.04 174.538 453.324 174.915 453.324 169.065C453.324 165.857 426.714 133.585 424.449 133.773C423.128 133.773 418.599 135.095 414.069 136.793Z" fill="#155EEF"/>
<path d="M271.205 141.322C264.977 143.209 258.749 145.285 257.428 145.851C255.541 146.417 256.484 148.682 260.259 153.589L265.354 160.383L270.827 154.155C276.867 146.795 284.038 137.358 283.094 137.547C282.717 137.547 277.433 139.246 271.205 141.322Z" fill="#155EEF"/>
<path d="M442 138.303C442 139.058 445.586 143.965 449.926 149.438C454.267 154.722 458.23 159.44 458.608 160.006C458.985 160.573 461.627 157.93 464.647 154.345C467.666 150.759 469.554 147.173 468.799 146.607C468.044 145.852 462.76 143.776 457.098 142.078C451.436 140.19 445.586 138.303 444.453 137.737C443.132 137.36 442 137.548 442 138.303Z" fill="#155EEF"/>
<path d="M189.299 154.721C185.147 160.194 182.316 165.289 183.071 166.044C184.392 167.177 203.642 173.216 206.284 173.216C206.85 173.216 211.002 168.498 215.343 162.836C220.816 155.664 222.515 152.079 220.816 151.513C216.098 149.814 199.49 144.907 198.169 144.907C197.414 144.907 193.451 149.437 189.299 154.721Z" fill="#155EEF"/>
<path d="M515.603 147.927C510.884 149.437 505.978 150.946 504.657 151.513C502.958 152.079 504.657 155.664 510.13 162.836C514.47 168.498 518.433 173.216 519.188 173.216C523.529 173.027 542.213 166.233 542.213 164.723C542.024 161.515 528.624 144.907 526.171 145.096C525.039 145.285 520.321 146.417 515.603 147.927Z" fill="#155EEF"/>
<path d="M251.766 166.988C251.955 176.424 252.144 176.802 255.541 173.782C259.881 170.008 259.693 167.743 255.163 161.893L251.389 157.174L251.766 166.988Z" fill="#155EEF"/>
<path d="M336.316 161.893C328.012 165.102 327.823 165.479 326.502 175.293C324.237 195.486 324.803 210.395 328.012 211.716C332.352 213.415 332.541 213.038 345.563 193.222L357.453 175.293L351.414 166.8C348.205 162.082 345.374 158.119 345.186 158.308C344.997 158.496 341.034 160.006 336.316 161.893Z" fill="#155EEF"/>
<path d="M468.61 163.592L464.836 168.876L469.365 173.217L474.083 177.558V167.933C474.083 162.46 473.706 158.119 473.329 158.119C472.762 158.119 470.686 160.572 468.61 163.592Z" fill="#155EEF"/>
<path d="M822.468 179.822C818.693 185.484 815.674 190.579 815.674 191.145C815.674 192.278 829.262 212.849 830.017 212.849C830.394 212.849 833.98 208.131 838.132 202.28L845.681 191.712L838.132 180.577C833.98 174.538 830.394 169.442 830.017 169.442C829.639 169.442 826.242 174.16 822.468 179.822Z" fill="#155EEF"/>
<path d="M296.683 176.237C289.889 178.879 283.85 181.71 283.095 182.465C282.34 183.031 283.85 186.805 286.492 190.58L291.399 197.562L299.325 186.805C307.818 175.293 310.46 171.33 309.516 171.519C309.139 171.519 303.477 173.783 296.683 176.237Z" fill="#155EEF"/>
<path d="M416.901 173.971C417.656 175.103 421.619 180.576 425.771 186.049L433.32 196.24L438.416 190.012C441.246 186.427 443.322 183.218 442.756 182.841C440.491 180.576 415.769 172.084 416.901 173.971Z" fill="#155EEF"/>
<path d="M262.714 177.934C260.638 180.388 260.827 180.577 263.469 179.633C265.168 179.067 266.489 177.746 266.489 176.802C266.489 174.349 265.356 174.726 262.714 177.934Z" fill="#155EEF"/>
<path d="M308.197 189.258C303.667 196.052 300.27 201.903 300.648 202.28C301.969 203.224 314.236 207.187 314.613 206.81C315.368 205.866 317.822 176.991 317.067 176.991C316.878 176.991 312.726 182.653 308.197 189.258Z" fill="#155EEF"/>
<path d="M408.407 190.768C408.973 198.694 409.728 205.677 410.294 206.243C410.672 206.81 414.635 206.055 418.976 204.734L426.902 202.469L417.277 189.258L407.652 176.048L408.407 190.768Z" fill="#155EEF"/>
<path d="M265.545 188.314C261.959 189.635 261.959 189.824 266.488 191.711C269.13 192.655 273.282 194.165 275.547 194.92C279.888 196.241 279.888 196.241 276.868 191.334C273.471 186.238 271.772 185.672 265.545 188.314Z" fill="#155EEF"/>
<path d="M448.606 191.334C445.587 196.241 445.587 196.241 449.927 194.92C452.192 194.165 456.344 192.655 458.986 191.711C463.515 189.824 463.515 189.635 459.93 188.314C453.702 185.672 452.003 186.238 448.606 191.334Z" fill="#155EEF"/>
<path d="M350.283 201.902C346.319 208.319 342.734 214.169 342.356 214.924C341.979 215.679 345.753 217.566 350.471 219.076L358.964 222.096V206.054C358.964 197.373 358.586 190.201 358.209 190.201C357.831 190.201 354.246 195.486 350.283 201.902Z" fill="#155EEF"/>
<path d="M366.512 204.734C366.512 221.719 366.512 221.719 377.458 217.944L383.686 215.68L375.193 202.469L366.512 189.258V204.734Z" fill="#155EEF"/>
<path d="M579.769 198.694C574.107 204.545 572.409 205.299 563.35 205.299H553.347V215.302C553.347 224.361 552.593 226.059 546.742 231.721L540.137 238.137L546.742 244.931C552.593 250.971 553.347 252.858 553.347 261.539V271.353H563.161C572.031 271.353 573.73 272.108 580.146 278.336L587.318 285.318L594.489 278.336C600.906 272.108 602.604 271.353 611.474 271.353H621.288V261.35C621.288 252.292 622.043 250.593 627.893 244.931L634.499 238.515L627.893 231.721C622.043 225.682 621.288 223.794 621.288 215.113V205.299H611.286C602.227 205.299 600.528 204.545 594.867 198.694C591.281 195.108 587.884 192.089 587.318 192.089C586.752 192.089 583.355 195.108 579.769 198.694ZM592.979 204.356C595.999 207.564 599.585 209.074 606.001 209.451L614.683 210.017L615.249 218.51C615.626 224.927 617.325 228.512 621.477 232.853L626.95 238.515L621.288 243.988C616.759 248.328 615.626 250.971 615.626 257.576V265.691H607.7C601.283 265.691 598.452 266.823 593.546 271.73L587.318 277.769L581.09 271.73C576.183 266.823 573.352 265.691 566.936 265.691H559.009V257.576C559.009 250.971 557.877 248.328 553.347 243.988L547.686 238.515L553.347 232.664C558.065 227.946 559.009 225.304 559.009 217.944V209.074H568.068C575.428 209.074 578.07 208.13 581.656 204.356C587.129 198.505 587.506 198.505 592.979 204.356Z" fill="#155EEF"/>
<path d="M583.357 229.268C578.828 230.401 574.487 239.082 577.507 240.969C578.828 241.724 579.394 243.8 578.639 245.499C577.695 248.141 578.828 248.707 586.188 248.707C593.548 248.707 594.869 248.141 594.869 245.121C594.869 243.045 596.002 240.969 597.323 240.403C599.21 239.46 599.21 239.082 597.323 238.138C596.002 237.572 594.869 235.496 594.869 233.42C594.869 231.533 594.114 229.835 593.171 229.835C592.227 229.835 590.34 229.457 588.83 229.08C587.509 228.702 585.056 228.702 583.357 229.268Z" fill="#155EEF"/>
<path d="M251.389 210.207C251.389 217.945 251.955 224.173 252.521 224.173C253.087 224.173 260.636 221.72 269.506 218.511L285.359 213.038V230.778C285.359 240.592 285.736 248.707 286.303 248.707C286.68 248.707 291.209 247.197 296.116 245.31C301.023 243.234 306.685 241.158 308.572 240.592C311.403 239.46 310.082 237.195 300.457 223.795L288.945 208.131L270.261 202.281L251.389 196.242V210.207Z" fill="#155EEF"/>
<path d="M454.833 202.47L436.527 208.131L425.015 223.795L413.691 239.271L418.787 241.347C426.902 244.555 438.603 248.707 439.358 248.707C439.735 248.707 440.113 240.592 440.113 230.778V212.849L456.343 218.7C465.213 221.908 472.762 224.173 473.328 223.607C473.894 223.229 474.083 216.813 473.706 209.641L473.139 196.619L454.833 202.47Z" fill="#155EEF"/>
<path d="M802.086 210.017C798.122 215.49 794.914 220.963 794.914 221.718C794.914 222.662 802.84 225.87 812.465 229.079L829.828 234.74L847.757 229.079C857.57 225.87 866.063 223.228 866.252 223.039C867.007 222.473 851.72 199.638 850.776 199.638C850.399 199.638 846.058 206.054 840.963 213.792C835.867 221.53 831.149 227.757 830.583 227.946C830.017 227.946 825.11 221.53 819.637 213.792C814.353 206.054 809.635 199.638 809.446 199.638C809.257 199.826 805.86 204.356 802.086 210.017Z" fill="#155EEF"/>
<path d="M717.915 219.077L718.481 232.665L729.805 236.817C736.033 239.082 741.694 240.969 742.638 240.969C743.393 241.158 743.959 235.307 743.959 228.136C743.959 213.793 745.28 215.303 727.351 208.886L717.16 205.489L717.915 219.077Z" fill="#155EEF"/>
<path d="M929.853 210.206L918.53 214.17L917.586 227.758C917.02 235.118 916.831 241.157 917.02 241.157C918.719 241.157 939.667 232.853 940.799 231.721C941.554 230.966 942.12 224.927 941.743 218.322L941.177 206.243L929.853 210.206Z" fill="#155EEF"/>
<path d="M307.44 218.698C312.913 228.135 315.555 229.267 315.555 222.662C315.555 218.132 314.423 216.622 309.893 214.924L304.043 213.037L307.44 218.698Z" fill="#155EEF"/>
<path d="M415.202 215.114C410.673 216.624 409.918 217.945 409.918 223.606V230.4L415.768 222.474C418.977 217.945 421.241 214.17 420.864 213.793C420.487 213.604 418.033 214.17 415.202 215.114Z" fill="#155EEF"/>
<path d="M398.594 222.096C398.594 223.228 399.349 224.55 400.481 225.116C401.613 225.682 401.802 224.927 401.236 223.417C399.915 220.02 398.594 219.454 398.594 222.096Z" fill="#155EEF"/>
<path d="M331.974 229.081L328.389 233.799L333.862 232.478C336.693 231.723 341.222 230.402 343.864 229.269C348.393 227.571 348.393 227.382 344.808 226.061C338.391 223.419 335.56 224.174 331.974 229.081Z" fill="#155EEF"/>
<path d="M381.608 225.87C377.268 227.191 377.645 227.38 385.949 230.211C395.196 233.419 396.329 233.041 392.177 227.38C389.535 223.983 388.78 223.794 381.608 225.87Z" fill="#155EEF"/>
<path d="M262.335 230.589L251.389 234.553V247.197C251.389 254.369 251.955 260.03 252.521 260.03C253.276 260.03 258.749 258.143 264.788 256.067L275.923 251.915V239.082C275.923 231.91 275.357 226.249 274.602 226.249C273.658 226.437 268.185 228.325 262.335 230.589Z" fill="#155EEF"/>
<path d="M449.549 238.893V252.103L459.551 255.5C464.835 257.199 470.497 259.086 471.818 259.652C473.517 260.218 474.083 257.01 474.083 247.385V234.363L464.269 230.966C458.796 229.268 453.135 227.192 452.002 226.626C450.115 226.059 449.549 229.079 449.549 238.893Z" fill="#155EEF"/>
<path d="M882.671 227.758C882.105 228.702 882.671 230.212 883.804 230.967C885.125 231.722 885.502 231.533 884.747 230.212C884.181 229.268 884.747 227.758 885.88 227.381C887.578 226.626 887.767 226.249 886.068 226.249C884.936 226.06 883.426 226.815 882.671 227.758Z" fill="#155EEF"/>
<path d="M799.634 238.139C803.031 243.234 804.729 243.8 810.957 241.158C814.543 239.837 814.543 239.648 810.013 237.761C807.371 236.818 803.219 235.308 800.955 234.553C796.614 233.232 796.614 233.232 799.634 238.139Z" fill="#155EEF"/>
<path d="M857.195 234.929C855.685 235.496 852.288 236.817 849.646 237.76L844.928 239.648L849.457 241.346C855.119 243.611 858.138 242.478 860.969 237.572C863.045 233.608 862.29 233.042 857.195 234.929Z" fill="#155EEF"/>
<path d="M776.232 245.876C772.834 250.594 770.57 254.368 770.947 254.368C771.325 254.368 774.344 253.425 777.741 252.292C782.837 250.594 783.592 249.273 783.592 243.8C783.592 240.214 783.403 237.383 783.026 237.383C782.648 237.383 779.629 241.157 776.232 245.876Z" fill="#155EEF"/>
<path d="M877.953 244.743C877.953 249.084 879.085 250.594 883.615 252.104L889.088 254.18L884.181 246.631C881.539 242.668 879.085 239.27 878.708 239.27C878.331 239.27 877.953 241.724 877.953 244.743Z" fill="#155EEF"/>
<path d="M719.803 246.82C719.803 249.462 720.18 250.406 720.746 249.085C721.124 247.953 721.124 245.688 720.746 244.367C720.18 243.234 719.803 244.178 719.803 246.82Z" fill="#155EEF"/>
<path d="M791.141 244.931C791.141 245.875 792.084 246.818 793.217 246.818C794.16 246.818 794.538 245.875 793.971 244.931C793.405 243.799 792.462 243.044 791.896 243.044C791.518 243.044 791.141 243.799 791.141 244.931Z" fill="#155EEF"/>
<path d="M834.547 261.351V277.581L841.718 266.446C845.682 260.407 849.456 254.368 850.211 253.047C851.155 251.726 848.512 249.839 843.039 248.14L834.547 245.121V261.351Z" fill="#155EEF"/>
<path d="M814.542 249.272L808.691 251.537L816.807 263.804L825.11 276.071V261.351C825.11 245.687 824.922 245.498 814.542 249.272Z" fill="#155EEF"/>
<path d="M354.622 264.936L347.262 275.316L354.811 286.639L362.171 297.963L368.776 288.904C372.362 283.997 375.948 278.713 376.703 277.392C377.835 275.316 365.19 254.368 362.737 254.368C362.171 254.368 358.585 259.086 354.622 264.936Z" fill="#155EEF"/>
<path d="M794.348 255.501C792.461 257.577 792.65 293.057 794.725 298.342C796.047 301.55 799.066 303.626 805.105 305.324C810.012 306.646 814.164 307.4 814.541 307.023C814.73 306.646 817.184 303.06 820.014 298.908L824.733 291.736L812.843 273.43C801.708 256.445 797.556 252.482 794.348 255.501Z" fill="#155EEF"/>
<path d="M773.211 262.294C770.191 263.427 767.36 264.559 766.983 264.748C766.606 265.125 770.38 270.787 775.476 277.581C780.382 284.564 784.534 289.848 784.723 289.659C784.912 289.47 784.534 282.676 784.157 274.561C783.025 259.275 782.836 258.897 773.211 262.294Z" fill="#155EEF"/>
<path d="M876.066 274.562V289.094L884.748 277.204C889.655 270.788 893.24 265.315 892.863 264.937C891.73 263.993 879.463 260.03 877.765 260.03C876.821 260.03 876.066 266.636 876.066 274.562Z" fill="#155EEF"/>
<path d="M892.485 281.544C887.578 288.15 883.615 294 883.615 294.566C883.615 295.51 910.037 285.507 910.603 284.375C910.603 283.998 908.716 280.412 906.073 276.637L901.167 269.466L892.485 281.544Z" fill="#155EEF"/>
<path d="M742.072 272.863C740.563 273.429 737.165 274.561 734.523 275.694C729.994 277.392 729.994 277.581 733.58 278.902C739.43 281.355 740.94 281.167 743.582 276.826C746.413 272.297 746.036 271.542 742.072 272.863Z" fill="#155EEF"/>
<path d="M754.528 275.882C749.433 283.808 750.188 284.752 764.153 290.225L777.552 295.32L768.871 283.431C764.153 276.825 759.624 271.352 758.869 271.352C758.114 271.352 756.227 273.428 754.528 275.882Z" fill="#155EEF"/>
<path d="M915.7 275.128C918.531 280.223 921.361 281.356 927.212 279.091L931.741 277.392L927.023 275.505C924.381 274.562 920.229 273.052 917.964 272.297C913.812 271.165 913.624 271.353 915.7 275.128Z" fill="#155EEF"/>
<path d="M696.4 287.206L683.756 291.169L694.135 305.135C702.439 315.892 704.138 319.289 702.251 320.61C700.741 321.554 698.854 322.309 697.91 322.309C696.966 322.309 690.361 324.007 683.378 326.083L670.545 330.046L679.226 341.37C684.133 347.409 688.474 351.938 689.229 351.183C689.983 350.24 694.89 343.634 700.363 336.085L710.177 322.686L709.611 303.059L709.045 283.431L696.4 287.206Z" fill="#155EEF"/>
<path d="M949.668 302.304V321.743L960.803 337.03L971.937 352.505L979.109 343.446C983.072 338.539 987.035 333.632 987.79 332.311C988.923 330.802 984.393 328.537 972.126 324.762L954.952 319.478L965.521 305.513C971.56 297.964 975.901 291.358 975.523 290.981C975.146 290.415 969.107 288.527 962.124 286.451L949.668 282.866V302.304Z" fill="#155EEF"/>
<path d="M730.182 288.527C731.503 289.848 733.012 290.414 733.579 289.848C734.145 289.282 733.201 288.149 731.314 287.583C728.672 286.451 728.483 286.639 730.182 288.527Z" fill="#155EEF"/>
<path d="M719.426 299.662V309.664L723.2 304.757C725.276 302.115 726.975 299.284 726.975 298.152C726.975 297.208 725.276 294.944 723.2 293.056C719.426 289.659 719.426 289.848 719.426 299.662Z" fill="#155EEF"/>
<path d="M936.081 294.566C933.25 298.718 933.25 299.284 936.647 303.625L940.233 308.154V299.096C940.233 294.189 940.044 290.226 939.855 290.226C939.478 290.226 937.968 292.301 936.081 294.566Z" fill="#155EEF"/>
<path d="M894.56 300.04L874.178 307.778V317.78V327.594L883.803 330.802C889.087 332.501 893.616 333.633 893.805 333.444C894.182 333.067 900.599 325.14 908.148 315.893C918.717 303.06 921.547 298.342 920.038 296.077C919.094 294.567 917.396 293.057 916.452 292.869C915.508 292.68 905.695 295.888 894.56 300.04Z" fill="#155EEF"/>
<path d="M660.92 297.208C655.258 298.907 650.163 300.605 649.785 300.794C649.219 301.36 664.317 322.309 665.26 322.309C669.035 321.931 688.285 314.76 688.285 313.627C688.285 310.796 675.263 294.189 673.187 294.189C672.243 294.189 666.581 295.699 660.92 297.208Z" fill="#155EEF"/>
<path d="M977.975 303.813C973.635 309.097 970.992 314.004 971.747 314.759C974.578 317.401 995.527 322.496 996.659 320.987C1009.3 305.511 1011.95 301.359 1009.68 300.604C1004.96 298.906 988.355 293.999 987.034 293.999C986.279 293.999 982.127 298.34 977.975 303.813Z" fill="#155EEF"/>
<path d="M739.242 297.586C738.676 298.529 738.865 299.85 739.808 300.417C740.752 300.983 741.507 300.228 741.507 298.718C741.507 295.51 740.941 295.132 739.242 297.586Z" fill="#155EEF"/>
<path d="M826.62 304.757C824.733 307.776 821.713 311.928 819.826 314.382L816.618 318.534L805.672 314.948L794.914 311.173V323.063V334.953L783.591 338.161L772.268 341.369L778.873 350.051C782.459 354.769 785.478 359.487 785.478 360.619C785.478 361.563 782.459 366.092 778.873 370.621L772.268 378.737L783.591 381.945L794.914 385.153V397.043V409.121L805.483 405.158C811.333 402.893 816.618 401.95 817.561 402.705C818.316 403.648 821.525 407.989 824.544 412.329L830.206 420.256L836.622 411.008C840.208 405.724 843.605 401.572 844.36 401.572C845.115 401.572 850.022 403.271 855.306 405.347C860.59 407.423 865.12 409.121 865.308 409.121C865.497 409.121 865.497 403.837 865.12 397.232L864.365 385.342L876.066 382.134L887.578 378.925L883.615 373.641C872.857 359.675 873.046 360.997 880.595 350.805L887.578 341.369L876.066 338.161L864.365 334.953L865.12 322.874C865.497 316.458 865.686 310.985 865.686 310.985C865.686 311.362 845.304 318.534 844.36 318.534C843.605 318.534 841.529 316.269 839.642 313.249C837.944 310.419 834.924 306.267 833.225 303.813L829.828 299.661L826.62 304.757Z" fill="#155EEF"/>
<path d="M727.163 313.25C725.087 316.647 723.954 320.044 724.709 320.61C726.408 322.12 750.187 330.046 750.753 329.291C751.697 328.348 734.334 307.211 732.636 307.211C731.881 307.211 729.427 310.041 727.163 313.25Z" fill="#155EEF"/>
<path d="M916.829 318.912C911.733 325.328 908.714 330.046 910.224 329.48C911.733 328.914 917.584 327.027 923.246 325.14C928.907 323.441 934.38 321.176 935.324 320.422C936.645 318.912 929.473 307.211 927.209 307.211C926.643 307.211 921.925 312.495 916.829 318.912Z" fill="#155EEF"/>
<path d="M719.426 338.539C719.426 344.955 719.992 347.031 721.879 346.276C723.2 345.71 729.806 343.823 736.411 341.936L748.489 338.539L735.467 334.198C728.296 331.745 721.69 329.857 720.936 329.857C720.181 329.857 719.426 333.82 719.426 338.539Z" fill="#155EEF"/>
<path d="M923.246 334.387L910.979 338.728L919.471 340.992C924.189 342.313 930.417 344.012 933.437 344.956C936.456 346.088 939.287 346.843 939.476 346.843C939.853 346.843 940.231 343.068 940.231 338.35C940.231 328.537 940.231 328.537 923.246 334.387Z" fill="#155EEF"/>
<path d="M445.775 338.351C445.775 344.579 446.153 344.956 452.381 344.956C458.609 344.956 458.986 344.579 458.986 338.351C458.986 332.123 458.609 331.745 452.381 331.745C446.153 331.745 445.775 332.123 445.775 338.351Z" fill="#155EEF"/>
<path d="M467.856 343.068L468.988 354.391H457.288H445.775V360.053C445.775 364.582 446.53 365.715 450.116 365.904C452.381 365.904 460.496 366.658 468.234 367.413L482.01 368.734L480.878 357.6C480.312 351.372 479.746 343.068 479.746 339.105C479.746 331.933 479.557 331.744 473.14 331.744H466.535L467.856 343.068Z" fill="#155EEF"/>
<path d="M546.932 339.671C546.366 344.2 545.611 352.504 545.044 358.166L543.912 368.734L557.689 367.225C565.049 366.658 573.542 365.904 576.561 365.904C580.902 365.715 581.657 364.96 581.657 360.053V354.391H569.39H557.123L558.444 343.068L559.576 331.744H553.726C548.253 331.744 547.875 332.311 546.932 339.671Z" fill="#155EEF"/>
<path d="M568.069 338.351C567.314 344.956 567.314 344.956 574.485 344.956C581.468 344.956 581.657 344.767 581.657 338.351C581.657 332.123 581.279 331.745 575.24 331.745C569.39 331.745 568.824 332.312 568.069 338.351Z" fill="#155EEF"/>
<path d="M949.668 344.013C949.668 348.542 950.612 350.618 952.31 350.618C953.82 350.618 956.462 351.184 958.161 351.939C960.614 352.694 960.237 351.184 956.273 345.334C953.442 340.993 950.8 337.407 950.423 337.407C950.045 337.407 949.668 340.427 949.668 344.013Z" fill="#155EEF"/>
<path d="M704.517 345.144C699.61 351.75 699.798 352.693 705.838 350.429C708.668 349.296 709.989 347.22 709.989 344.012C709.989 341.37 709.801 339.294 709.423 339.294C709.046 339.294 706.97 341.936 704.517 345.144Z" fill="#155EEF"/>
<path d="M739.242 350.429C722.256 355.147 720.369 356.09 720.369 360.053C720.369 364.017 722.256 364.96 740.185 369.867C751.131 372.698 760.945 375.151 762.077 375.151C763.209 375.151 766.795 371.943 770.004 367.791L775.854 360.431L770.192 352.693C766.984 348.541 763.021 344.956 761.322 345.144C759.435 345.144 749.621 347.598 739.242 350.429Z" fill="#155EEF"/>
<path d="M1078.94 356.279C1074.79 360.62 1071.77 361.941 1066.3 361.941C1059.32 361.941 1059.13 362.13 1059.13 369.112C1059.13 374.585 1057.81 377.605 1053.47 381.757L1047.8 387.23L1053.47 393.08C1058 397.61 1059.13 400.629 1059.13 406.857V414.784H1067.05C1073.09 414.784 1076.3 415.916 1080.27 419.879L1085.55 424.975L1090.83 419.879C1094.8 415.916 1098.01 414.784 1104.04 414.784H1111.97V406.668C1111.97 400.063 1113.1 397.421 1117.63 393.08L1123.29 387.607L1117.63 381.757C1113.48 377.416 1111.97 374.208 1111.97 368.924C1111.97 362.13 1111.78 361.941 1104.8 361.941C1099.33 361.941 1096.31 360.62 1092.15 356.279C1089.14 353.071 1086.12 350.617 1085.55 350.617C1084.98 350.617 1081.96 353.071 1078.94 356.279ZM1091.21 360.997C1093.48 363.451 1095.93 365.527 1096.68 365.338C1097.25 365.338 1100.08 365.338 1103.1 365.527C1107.63 365.715 1108.2 366.47 1108.2 371.754C1108.2 375.718 1109.89 379.492 1113.29 383.078L1118.2 388.362L1113.29 392.137C1109.33 395.345 1108.2 397.798 1108.2 403.649C1108.2 410.82 1108.01 411.009 1101.21 411.009C1096.68 411.009 1092.72 412.519 1089.89 415.161L1085.55 419.124L1081.21 415.161C1078.38 412.519 1074.41 411.009 1069.89 411.009C1063.09 411.009 1062.9 410.82 1062.9 404.026C1062.9 399.119 1061.39 395.534 1058.18 392.137L1053.47 387.23L1058.18 382.7C1061.39 379.681 1062.9 376.284 1062.9 371.943C1062.9 366.093 1063.28 365.715 1069.13 365.715C1073.47 365.715 1076.87 364.205 1079.89 360.997C1085.36 355.147 1085.74 355.147 1091.21 360.997Z" fill="#155EEF"/>
<path d="M1082.72 367.603C1080.83 369.679 1076.87 371.377 1073.85 371.377C1069.32 371.377 1068.57 372.132 1068.57 376.473C1068.57 379.115 1067.24 383.078 1065.36 384.966C1062.53 388.174 1062.53 388.551 1065.36 391.76C1067.24 393.647 1068.57 397.61 1068.57 400.252C1068.57 404.404 1069.51 405.348 1073.1 405.348C1075.55 405.348 1079.7 407.046 1082.15 409.122C1086.87 412.708 1087.06 412.708 1090.27 409.122C1092.16 407.046 1095.74 405.348 1098.2 405.348C1101.4 405.348 1102.54 404.215 1102.54 401.196C1102.54 398.931 1104.42 395.157 1106.69 392.703L1110.84 388.363L1106.69 384.588C1104.42 382.323 1102.54 378.549 1102.54 376.096C1102.54 372.132 1101.59 371.377 1097.06 371.377C1093.48 371.377 1090.46 369.868 1088.76 367.603L1086.12 363.828L1082.72 367.603ZM1091.02 380.814C1091.78 380.814 1093.48 382.89 1094.61 385.343C1096.31 389.306 1095.93 390.627 1091.97 394.59C1088 398.554 1086.68 398.931 1082.72 397.044C1072.53 392.326 1076.49 377.039 1087.06 380.059C1088.57 380.436 1090.27 380.814 1091.02 380.814Z" fill="#155EEF"/>
<path d="M523.718 356.656C520.132 361.374 519.377 363.639 521.076 364.583C522.019 365.149 523.718 363.073 524.85 360.053C526.926 354.014 526.549 353.07 523.718 356.656Z" fill="#155EEF"/>
<path d="M490.503 361.941C491.636 369.112 492.391 370.622 494.089 369.112C494.655 368.546 493.712 365.149 492.202 361.752L489.371 355.335L490.503 361.941Z" fill="#155EEF"/>
<path d="M502.393 359.676C503.525 362.13 505.035 363.64 505.79 363.074C506.356 362.319 505.412 360.431 503.525 358.544C500.128 355.525 500.128 355.525 502.393 359.676Z" fill="#155EEF"/>
<path d="M531.832 366.659C531.266 368.169 531.644 369.49 532.587 369.49C533.72 369.49 534.475 368.169 534.475 366.659C534.475 365.15 534.097 363.829 533.72 363.829C533.342 363.829 532.587 365.15 531.832 366.659Z" fill="#155EEF"/>
<path d="M704.894 376.284L710.933 384.965L711.499 378.926C712.254 371.943 711.122 370.433 703.95 368.735L698.666 367.602L704.894 376.284Z" fill="#155EEF"/>
<path d="M955.33 369.302C951.744 370.245 950.423 371.944 950.046 377.039L949.291 383.645L953.632 377.983C955.896 374.775 958.727 371.189 959.671 369.868C960.614 368.735 961.181 367.603 960.803 367.792C960.426 367.98 957.972 368.547 955.33 369.302Z" fill="#155EEF"/>
<path d="M508.053 374.209C505.034 377.417 501.637 378.927 497.296 378.927C491.634 378.927 491.068 379.304 491.068 384.966C491.068 388.552 489.37 392.703 486.916 395.346L482.953 399.686L486.916 404.027C489.37 406.669 491.068 410.821 491.068 414.407C491.068 420.068 491.634 420.446 497.296 420.446C501.637 420.446 505.034 421.956 508.053 425.164L512.394 429.693L518.245 425.164C521.83 422.333 526.171 420.823 529.379 421.201C533.909 421.767 534.475 421.201 534.475 415.728C534.475 411.765 536.173 407.99 539.193 404.971L543.722 400.441L539.193 395.346C536.173 392.137 534.475 388.174 534.475 384.022C534.475 378.172 534.097 377.794 529.19 378.549C525.227 379.115 522.585 377.983 519.188 374.397C513.526 368.358 513.526 368.358 508.053 374.209ZM517.49 379.682C518.622 381.191 522.019 382.701 524.661 383.079C528.436 383.456 529.945 384.777 530.323 388.363C530.7 391.005 532.399 394.591 533.909 396.289C536.739 399.309 536.739 400.064 533.909 402.895C532.399 404.782 530.7 408.368 530.323 411.01C529.945 414.407 528.436 415.917 525.039 416.294C522.396 416.671 518.811 418.37 517.112 419.88C514.093 422.711 513.338 422.711 510.318 419.88C508.431 417.992 504.468 416.671 501.826 416.671C497.485 416.671 496.73 415.917 496.73 411.576C496.73 408.934 495.409 404.971 493.522 403.083C490.691 399.875 490.691 399.498 493.522 396.289C495.409 394.402 496.73 390.439 496.73 387.797C496.73 383.456 497.485 382.701 502.203 382.701C505.223 382.701 508.62 381.38 509.941 379.87C512.96 376.284 514.47 376.284 517.49 379.682Z" fill="#155EEF"/>
<path d="M508.053 391.57C505.411 392.891 504.09 394.024 505.034 394.024C505.977 394.024 505.6 395.345 504.279 396.854C502.391 399.119 502.391 400.251 504.279 402.516C505.6 404.026 505.977 405.347 505.034 405.347C504.09 405.347 505.411 406.479 508.053 407.8C516.357 411.952 524.283 405.536 522.019 396.288C520.509 391.193 513.526 388.739 508.053 391.57Z" fill="#155EEF"/>
<path d="M719.425 382.512V391.76L734.712 386.853L749.998 381.757L739.618 378.738C717.915 372.321 719.425 371.944 719.425 382.512Z" fill="#155EEF"/>
<path d="M925.323 377.793L911.357 381.568L924.946 386.097C932.495 388.55 939.1 390.249 939.477 389.683C940.043 389.117 940.232 385.342 939.855 381.379L939.289 374.019L925.323 377.793Z" fill="#155EEF"/>
<path d="M428.602 387.608L416.713 399.686L428.602 411.764L440.681 423.843L454.458 412.331C462.195 405.914 468.423 400.252 468.423 399.686C468.423 399.12 462.195 393.458 454.458 387.042L440.681 375.529L428.602 387.608Z" fill="#155EEF"/>
<path d="M475.029 378.925C480.313 381.189 482.011 381.189 480.69 378.925C480.124 377.792 477.671 377.037 475.406 377.226C471.443 377.226 471.443 377.415 475.029 378.925Z" fill="#155EEF"/>
<path d="M543.912 379.87C543.912 382.134 544.856 382.323 547.309 381.191C549.008 380.247 551.839 378.926 553.348 378.36C554.858 377.794 553.348 377.228 550.14 377.228C545.799 377.039 543.912 377.983 543.912 379.87Z" fill="#155EEF"/>
<path d="M569.955 387.984C562.972 393.835 557.311 399.119 557.311 399.685C557.311 401.195 582.977 422.332 584.864 422.332C585.808 422.332 591.47 417.236 597.697 411.009L608.832 399.685L597.697 388.362C591.47 382.134 585.619 377.038 584.487 377.038C583.543 377.227 576.938 382.134 569.955 387.984Z" fill="#155EEF"/>
<path d="M470.121 388.928C472.575 391.759 475.405 393.458 476.16 392.892C478.802 391.382 478.236 390.438 471.82 387.23L465.592 384.021L470.121 388.928Z" fill="#155EEF"/>
<path d="M552.782 389.307C551.272 390.817 549.385 391.383 548.63 390.628C547.686 389.873 547.686 390.439 548.441 391.76C549.573 393.836 550.706 393.648 553.537 391.005C555.424 389.307 557.122 387.42 557.122 387.042C557.122 385.721 555.424 386.665 552.782 389.307Z" fill="#155EEF"/>
<path d="M882.293 389.683L874.178 392.514V402.328V412.33L895.315 420.068C911.168 426.107 916.829 427.428 918.905 425.918C920.226 424.786 921.359 423.087 921.359 422.332C921.359 419.879 894.749 387.418 892.484 387.041C891.163 386.852 886.634 387.985 882.293 389.683Z" fill="#155EEF"/>
<path d="M737.73 394.779C730.747 397.232 724.896 399.686 724.896 400.252C725.085 401.007 725.085 402.139 725.085 402.894C725.274 403.838 726.972 406.48 729.048 409.122L733.012 413.651L738.485 407.235C744.901 399.686 752.073 390.25 751.129 390.438C750.752 390.627 744.713 392.514 737.73 394.779Z" fill="#155EEF"/>
<path d="M916.452 401.197C921.547 407.613 926.265 412.897 927.02 412.897C927.775 412.897 930.606 410.067 933.437 406.481L938.344 400.064L925.511 395.724C918.528 393.459 911.545 391.194 910.035 390.628C908.525 390.062 911.545 394.78 916.452 401.197Z" fill="#155EEF"/>
<path d="M657.335 407.424C653.183 412.708 649.598 417.804 649.598 418.558C649.598 420.634 674.32 426.674 675.83 424.975C676.585 424.031 680.36 419.313 684.134 414.406L691.306 405.536L680.36 402.328C674.32 400.63 668.47 398.742 667.338 398.365C666.205 397.988 661.676 401.951 657.335 407.424Z" fill="#155EEF"/>
<path d="M981.751 401.573C975.146 403.838 971.56 405.914 971.937 407.612C972.692 410.632 985.337 426.107 987.035 426.107C987.79 426.107 993.64 424.598 1000.25 422.71L1011.95 419.502L1004.02 408.556C999.68 402.706 995.15 397.799 994.207 397.988C993.074 398.176 987.413 399.686 981.751 401.573Z" fill="#155EEF"/>
<path d="M548.63 407.233C548.064 408.366 549.007 409.687 550.895 410.442C552.782 411.008 555.235 411.951 556.179 412.518C557.311 413.084 556.368 411.763 554.48 409.498C550.328 404.78 550.14 404.78 548.63 407.233Z" fill="#155EEF"/>
<path d="M473.139 409.122C472.573 410.065 472.762 411.009 473.894 411.009C474.838 411.009 476.348 410.065 476.914 409.122C477.48 407.989 477.291 407.234 476.159 407.234C475.215 407.234 473.705 407.989 473.139 409.122Z" fill="#155EEF"/>
<path d="M719.426 420.068C719.426 430.071 721.124 431.392 724.899 424.409C726.22 422.144 725.654 419.502 723.012 415.539L719.426 410.066V420.068Z" fill="#155EEF"/>
<path d="M801.331 415.916L793.594 418.747L793.782 441.771C793.971 471.59 796.047 472.156 812.844 446.678L824.733 428.561L819.638 420.634C814.353 412.142 812.844 411.764 801.331 415.916Z" fill="#155EEF"/>
<path d="M936.081 416.482C933.062 420.634 933.062 421.201 936.081 425.919L939.289 430.637L939.856 425.541C940.233 422.71 940.233 418.558 939.856 416.105L939.289 411.953L936.081 416.482Z" fill="#155EEF"/>
<path d="M474.084 420.445C471.819 421.955 472.385 422.332 476.537 422.332C479.368 422.332 481.632 421.388 481.632 420.445C481.632 417.991 477.858 417.991 474.084 420.445Z" fill="#155EEF"/>
<path d="M543.912 420.068C543.912 420.823 546.177 421.578 549.196 421.767C553.537 421.956 553.726 421.956 550.517 420.446C545.611 418.37 543.912 418.181 543.912 420.068Z" fill="#155EEF"/>
<path d="M763.964 429.693C756.793 432.335 750.565 435.355 750.376 436.487C749.999 437.43 751.886 440.828 754.34 444.036C758.303 448.943 759.246 449.32 761.511 446.867C764.719 443.281 778.496 424.22 777.553 424.409C777.364 424.597 771.136 426.862 763.964 429.693Z" fill="#155EEF"/>
<path d="M891.73 437.43C896.071 443.658 900.223 448.754 900.789 448.754C901.544 448.754 904.186 445.923 906.828 442.337L911.735 436.109L899.09 431.014C892.107 428.372 885.691 426.107 884.936 426.107C884.181 426.107 887.201 431.203 891.73 437.43Z" fill="#155EEF"/>
<path d="M477.858 431.014C476.349 431.391 468.422 432.146 460.496 432.712L445.775 434.033V439.884V445.923L457.476 445.357L468.988 444.602L467.856 456.114L466.535 467.626H472.952H479.18L480.501 449.508C481.255 439.506 481.444 431.014 481.255 430.825C480.878 430.636 479.368 430.825 477.858 431.014Z" fill="#155EEF"/>
<path d="M491.068 434.033C491.068 437.619 491.446 437.807 492.956 435.543C495.409 431.957 495.409 429.881 492.956 429.881C492.012 429.881 491.068 431.768 491.068 434.033Z" fill="#155EEF"/>
<path d="M530.701 430.636C530.701 431.013 532.022 434.222 533.532 437.619C535.608 442.714 536.174 443.092 536.363 439.883C536.363 434.599 534.476 429.881 532.4 429.881C531.456 429.881 530.701 430.258 530.701 430.636Z" fill="#155EEF"/>
<path d="M545.044 441.205C547.498 468.192 547.309 467.626 553.726 467.626H559.576L558.255 456.303L556.934 444.979H569.39H581.657V439.317C581.657 434.411 580.902 433.656 576.561 433.467C573.542 433.467 565.049 432.712 557.689 432.146L543.912 430.636L545.044 441.205Z" fill="#155EEF"/>
<path d="M729.805 431.768C729.239 432.712 729.428 433.655 730.56 433.655C731.504 433.655 733.014 432.712 733.58 431.768C734.146 430.636 733.957 429.881 732.825 429.881C731.881 429.881 730.371 430.636 729.805 431.768Z" fill="#155EEF"/>
<path d="M775.475 442.714L766.605 455.358L772.645 457.623C783.024 461.397 783.213 461.209 783.968 445.356C784.346 437.429 784.534 430.635 784.534 430.447C784.534 430.258 780.571 435.92 775.475 442.714Z" fill="#155EEF"/>
<path d="M876.066 445.545C876.066 456.491 876.633 460.077 878.709 460.077C882.106 460.077 893.052 456.114 893.052 454.982C893.052 454.038 880.973 436.487 877.576 432.712C876.821 431.769 876.066 437.619 876.066 445.545Z" fill="#155EEF"/>
<path d="M520.888 434.788C520.133 435.732 521.454 438.751 523.341 441.204C526.172 444.602 526.738 444.79 525.417 442.148C524.474 440.072 523.341 437.053 522.775 435.543C522.398 434.033 521.454 433.656 520.888 434.788Z" fill="#155EEF"/>
<path d="M500.882 440.261C497.674 447.244 498.051 447.999 502.392 442.526C506.544 437.43 507.11 435.543 504.656 435.543C503.713 435.543 502.014 437.619 500.882 440.261Z" fill="#155EEF"/>
<path d="M734.147 440.639C728.674 441.96 730.183 444.225 738.11 446.489C748.112 449.509 748.301 449.509 744.526 444.036C741.129 439.318 739.997 439.129 734.147 440.639Z" fill="#155EEF"/>
<path d="M916.829 443.28C915.32 445.734 914.187 447.81 914.376 448.187C915.508 449.131 928.908 444.224 928.908 442.714C928.908 441.959 928.153 441.204 927.209 441.204C926.266 441.204 924.19 440.638 922.68 440.072C920.981 439.506 918.717 440.827 916.829 443.28Z" fill="#155EEF"/>
<path d="M1148.96 444.601C1148.4 445.545 1149.15 446.3 1150.66 446.3C1152.17 446.3 1152.92 445.545 1152.36 444.601C1151.79 443.846 1151.04 443.091 1150.66 443.091C1150.28 443.091 1149.53 443.846 1148.96 444.601Z" fill="#155EEF"/>
<path d="M816.239 457.058L808.312 469.136L816.616 472.155L825.109 474.986V459.888C825.109 451.773 824.92 444.979 824.731 444.979C824.354 444.979 820.58 450.452 816.239 457.058Z" fill="#155EEF"/>
<path d="M834.547 459.888V474.986L842.851 472.155L851.155 469.325L843.606 457.058C839.454 450.452 835.679 444.979 835.302 444.979C834.924 444.979 834.547 451.773 834.547 459.888Z" fill="#155EEF"/>
<path d="M719.426 463.286C719.426 470.835 719.992 477.063 720.558 477.063C721.313 477.063 727.73 474.987 734.901 472.344C754.717 465.173 754.151 464.796 753.019 484.612C752.452 493.859 752.452 501.597 753.207 501.597C755.85 501.597 777.93 493.293 777.93 492.16C777.93 491.406 773.023 484.234 766.984 475.93L756.038 461.021L737.732 455.359L719.426 449.509V463.286Z" fill="#155EEF"/>
<path d="M1139.15 454.794L1133.67 461.021L1139.9 455.548C1143.11 452.34 1145.94 449.698 1145.94 449.321C1145.94 447.811 1144.43 449.132 1139.15 454.794Z" fill="#155EEF"/>
<path d="M641.105 454.415C639.218 456.491 635.255 458.19 632.235 458.19C627.706 458.19 626.951 458.945 626.951 463.663C626.951 466.682 625.63 470.079 624.12 471.4C622.61 472.721 621.289 474.797 621.289 476.118C621.289 477.44 622.61 479.516 624.12 480.837C625.63 482.158 626.951 485.555 626.951 488.574C626.951 493.292 627.706 494.047 632.424 494.047C635.443 494.047 638.84 495.368 640.161 496.878C641.483 498.388 643.558 499.709 644.88 499.709C646.201 499.709 648.277 498.388 649.598 496.878C650.919 495.368 654.316 494.047 657.335 494.047C662.053 494.047 662.808 493.292 662.808 488.574C662.808 485.555 664.129 482.158 665.639 480.837C667.149 479.516 668.47 477.44 668.47 476.118C668.47 474.797 667.149 472.721 665.639 471.4C664.129 470.079 662.808 466.682 662.808 463.663C662.808 458.945 662.053 458.19 657.713 458.19C654.882 458.19 650.919 456.491 648.654 454.415L644.502 450.641L641.105 454.415Z" fill="#155EEF"/>
<path d="M919.662 456.303L903.809 461.398L892.674 476.874C886.446 485.366 881.539 492.538 881.917 492.915C883.238 493.859 905.696 501.597 907.017 501.597C907.772 501.597 908.15 494.425 907.961 485.555C907.772 476.685 908.15 468.947 908.716 468.381C909.282 467.815 916.642 469.514 925.135 472.344C933.627 475.175 940.61 477.063 940.799 476.874C941.176 476.496 940.987 470.457 940.61 463.286C940.233 455.171 939.1 450.641 937.779 450.83C936.458 451.019 928.343 453.283 919.662 456.303Z" fill="#155EEF"/>
<path d="M445.397 461.021C444.642 467.626 444.642 467.626 451.813 467.626C458.796 467.626 458.985 467.437 458.985 461.021C458.985 454.793 458.607 454.415 452.568 454.415C446.718 454.415 446.152 454.981 445.397 461.021Z" fill="#155EEF"/>
<path d="M567.314 457.435C567.88 459.133 568.446 461.964 568.446 464.04C568.446 466.871 569.767 467.626 575.051 467.626C581.279 467.626 581.657 467.249 581.657 461.021C581.657 454.604 581.468 454.415 573.919 454.415C567.691 454.415 566.37 454.981 567.314 457.435Z" fill="#155EEF"/>
<path d="M999.681 463.853C997.417 466.495 994.963 467.25 991.944 466.495C987.98 465.551 987.414 465.929 987.414 470.836C987.414 474.044 985.716 478.007 983.64 479.894L979.865 483.291L983.64 487.443C985.716 489.708 987.414 493.671 987.414 496.502C987.414 500.843 988.169 501.598 992.698 501.598C995.718 501.598 999.681 503.296 1001.57 505.372L1004.97 509.146L1009.12 505.372C1011.38 503.296 1014.97 501.598 1017.23 501.598C1020.25 501.598 1021.38 500.465 1021.38 497.446C1021.38 495.181 1023.27 491.406 1025.54 488.953L1029.5 484.612L1025.54 480.272C1023.27 477.818 1021.38 473.666 1021.38 471.024C1021.38 467.061 1020.63 466.495 1017.04 467.061C1014.4 467.627 1011.57 466.495 1009.31 464.041C1004.78 459.135 1004.02 459.135 999.681 463.853Z" fill="#155EEF"/>
<path d="M1128.77 465.172C1126.31 468.192 1126.5 468.38 1129.52 465.927C1132.54 463.474 1133.49 461.964 1131.98 461.964C1131.6 461.964 1130.09 463.474 1128.77 465.172Z" fill="#155EEF"/>
<path d="M775.665 473.289C778.495 477.253 780.76 480.272 780.949 480.083C781.138 480.083 781.704 477.63 782.27 474.988C783.402 470.647 782.836 469.892 777.174 468.194L770.758 466.118L775.665 473.289Z" fill="#155EEF"/>
<path d="M883.237 468.003C878.897 469.513 877.953 471.023 877.953 475.741V481.78L881.916 477.062C885.691 472.344 889.843 465.55 888.899 465.927C888.522 465.927 886.068 466.871 883.237 468.003Z" fill="#155EEF"/>
<path d="M1082.91 477.439C1083.1 483.101 1083.66 483.667 1089.89 484.234C1095.74 484.8 1096.87 484.234 1096.87 481.025C1096.87 473.854 1094.8 471.4 1088.57 471.4C1083.1 471.4 1082.72 471.967 1082.91 477.439Z" fill="#155EEF"/>
<path d="M1105.55 482.912L1106.88 494.425L1095.17 493.67L1083.66 493.103V498.954V504.804L1100.84 506.314C1110.27 506.88 1118.2 507.258 1118.58 506.88C1118.95 506.503 1118.76 498.388 1118.2 488.763L1117.07 471.4H1110.65H1104.23L1105.55 482.912Z" fill="#155EEF"/>
<path d="M1184.82 475.552C1184.25 478.006 1183.5 486.121 1182.93 493.481C1181.99 507.069 1181.99 507.258 1186.71 507.258C1191.23 507.258 1191.23 507.069 1191.23 489.329C1191.23 474.797 1190.67 471.4 1188.4 471.4C1186.89 471.4 1185.2 473.288 1184.82 475.552Z" fill="#155EEF"/>
<path d="M791.141 475.364C791.141 476.307 792.084 476.685 793.028 476.119C794.16 475.553 794.915 474.609 794.915 474.043C794.915 473.665 794.16 473.288 793.028 473.288C792.084 473.288 791.141 474.232 791.141 475.364Z" fill="#155EEF"/>
<path d="M865.686 475.175C866.252 476.119 867.196 477.062 867.762 477.062C868.139 477.062 868.517 476.119 868.517 475.175C868.517 474.043 867.573 473.288 866.441 473.288C865.497 473.288 865.12 474.043 865.686 475.175Z" fill="#155EEF"/>
<path d="M799.821 481.781C796.235 487.254 796.612 487.254 806.426 484.234C814.73 481.781 815.673 479.894 809.634 478.195C803.406 476.497 803.218 476.685 799.821 481.781Z" fill="#155EEF"/>
<path d="M851.155 478.384C846.437 479.516 847.003 482.158 852.287 483.479C854.741 484.045 858.327 485.178 860.025 485.932C863.045 487.065 863.045 486.687 860.025 482.158C858.327 479.327 856.251 477.251 855.496 477.251C854.93 477.44 852.854 477.817 851.155 478.384Z" fill="#155EEF"/>
<path d="M730.371 483.29L719.802 487.253L718.481 500.275C717.726 507.258 717.349 513.486 717.726 513.675C718.104 514.052 724.143 512.165 731.314 509.523L743.959 504.805V491.971C743.959 484.8 743.393 479.138 742.638 479.138C741.694 479.327 736.221 481.214 730.371 483.29Z" fill="#155EEF"/>
<path d="M917.02 491.594C917.586 498.577 918.53 504.805 918.907 505.371C919.285 505.748 924.758 508.013 930.986 510.278L942.309 514.43L941.743 501.219L941.177 488.008L932.684 484.611C914.755 477.629 916.077 477.251 917.02 491.594Z" fill="#155EEF"/>
<path d="M1160.47 497.068C1158.59 499.521 1157.64 502.541 1158.4 503.673C1159.15 504.994 1160.66 503.296 1162.36 499.71C1165.57 491.972 1164.81 491.217 1160.47 497.068Z" fill="#155EEF"/>
<path d="M1128.39 501.596C1129.52 508.767 1130.28 510.277 1131.98 508.767C1132.54 508.201 1131.6 504.804 1130.09 501.407L1127.26 494.991L1128.39 501.596Z" fill="#155EEF"/>
<path d="M1139.71 499.71C1140.28 501.786 1141.41 503.484 1142.54 503.484C1143.49 503.484 1143.3 501.786 1142.17 499.71C1141.03 497.634 1139.9 495.935 1139.52 495.935C1139.15 495.935 1139.15 497.634 1139.71 499.71Z" fill="#155EEF"/>
<path d="M1170.66 504.616C1170.66 506.692 1171.23 507.258 1171.8 505.749C1172.36 504.427 1172.17 502.729 1171.61 502.163C1171.04 501.408 1170.48 502.54 1170.66 504.616Z" fill="#155EEF"/>
<path d="M822.468 517.638C818.693 523.3 815.674 528.396 815.674 528.962C815.674 530.283 829.262 550.665 830.017 550.665C830.394 550.665 833.98 545.758 838.132 539.719L845.681 528.584L838.132 518.016C833.791 511.977 830.206 507.259 830.017 507.259C829.639 507.259 826.242 511.977 822.468 517.638Z" fill="#155EEF"/>
<path d="M1146.88 512.919C1144.62 515.372 1141.03 516.693 1136.13 516.693C1129.14 516.693 1128.95 516.882 1128.95 523.676C1128.95 528.206 1127.45 532.169 1124.8 535L1120.84 539.34L1124.8 543.681C1127.26 546.323 1128.95 550.475 1128.95 554.061C1128.95 559.722 1129.52 560.1 1135.18 560.1C1139.52 560.1 1142.92 561.61 1145.94 564.818L1150.47 569.536L1155.38 564.818C1158.58 561.798 1162.55 560.1 1166.32 560.1C1171.8 560.1 1172.36 559.534 1172.36 554.061C1172.36 550.286 1174.06 546.323 1177.08 543.115L1181.8 538.208L1177.08 533.679C1173.87 530.659 1172.36 527.262 1172.36 522.921C1172.36 517.071 1171.98 516.693 1166.13 516.693C1162.17 516.693 1158.4 515.184 1156.32 512.919C1154.43 510.843 1152.36 509.144 1151.6 509.144C1150.85 509.144 1148.77 510.843 1146.88 512.919ZM1155.38 519.524C1156.7 521.034 1159.72 522.355 1162.17 522.355C1165.57 522.355 1166.7 523.299 1166.7 526.696C1166.7 529.149 1168.4 532.735 1170.47 534.622L1174.25 538.019L1170.47 542.171C1168.4 544.436 1166.7 548.399 1166.7 551.23C1166.7 555.571 1165.94 556.325 1161.23 556.325C1158.21 556.325 1154.81 557.647 1153.49 559.156C1151.22 561.798 1150.66 561.798 1147.83 559.156C1146.13 557.647 1142.35 556.325 1139.71 556.325C1135.37 556.325 1134.62 555.571 1134.62 550.852C1134.62 547.833 1133.3 544.436 1131.79 543.115C1130.28 541.794 1128.95 539.906 1128.95 538.963C1128.95 538.019 1130.28 535.943 1131.79 534.433C1133.3 532.735 1134.62 529.527 1134.62 526.885C1134.62 523.299 1135.56 522.355 1139.15 522.355C1141.6 522.355 1144.62 521.034 1145.94 519.524C1147.26 518.014 1149.34 516.693 1150.66 516.693C1151.98 516.693 1154.06 518.014 1155.38 519.524Z" fill="#155EEF"/>
<path d="M1146.51 530.849C1141.98 532.736 1140.09 537.454 1141.6 542.739C1143.49 550.476 1157.83 550.476 1159.91 542.739C1161.98 534.057 1154.43 527.263 1146.51 530.849Z" fill="#155EEF"/>
<path d="M1066.68 527.074L1054.6 539.341L1065.73 550.665C1071.96 556.893 1077.62 561.988 1078.57 561.988C1079.51 561.988 1085.93 557.081 1092.72 551.231C1099.7 545.192 1105.74 540.096 1106.31 539.719C1106.87 539.341 1104.99 537.077 1102.34 535.001C1099.51 532.736 1093.1 527.263 1088 522.922L1078.57 514.996L1066.68 527.074Z" fill="#155EEF"/>
<path d="M1111.97 517.449C1111.97 517.826 1113.67 518.581 1115.75 519.147C1117.82 519.713 1119.52 519.336 1119.52 518.392C1119.52 517.449 1117.82 516.694 1115.75 516.694C1113.67 516.694 1111.97 517.071 1111.97 517.449Z" fill="#155EEF"/>
<path d="M1181.8 518.582C1181.8 520.846 1183.31 520.846 1188.4 518.582C1191.8 517.072 1191.61 516.883 1187.08 516.883C1184.06 516.695 1181.8 517.449 1181.8 518.582Z" fill="#155EEF"/>
<path d="M609.967 530.849C604.305 536.699 602.607 537.454 593.548 537.454H583.546V547.268C583.546 556.138 582.791 557.836 576.563 564.253L569.58 571.424L576.563 578.596C582.791 585.013 583.546 586.711 583.546 595.581V605.395H593.359C602.229 605.395 603.928 606.15 610.344 612.378L617.516 619.36L624.687 612.378C631.104 606.15 632.803 605.395 641.673 605.395H651.486V595.392C651.486 586.334 652.241 584.635 658.092 578.973L664.697 572.557L658.28 565.763C652.619 560.101 651.675 557.648 651.109 548.778L650.543 538.398L640.163 537.832C631.293 537.265 628.839 536.322 623.178 530.66L616.384 524.243L609.967 530.849ZM636.955 543.116H645.825V551.986C645.825 559.346 646.768 561.988 651.486 566.706L657.148 572.557L651.486 578.03C646.957 582.37 645.825 585.013 645.825 591.618V599.733H637.898C631.482 599.733 628.651 600.865 623.744 605.772L617.516 611.811L611.288 605.772C606.381 600.865 603.55 599.733 597.134 599.733H589.207V591.807C589.207 585.39 588.075 582.559 583.168 577.652L577.129 571.424L583.168 565.197C588.075 560.29 589.207 557.459 589.207 551.042V543.116H597.323C603.928 543.116 606.57 541.984 610.911 537.454L616.384 531.792L622.234 537.454C626.952 542.172 629.594 543.116 636.955 543.116Z" fill="#155EEF"/>
<path d="M612.418 562.742C604.869 566.139 605.246 578.406 612.984 582.181C619.023 585.012 626.383 581.615 625.44 576.33C624.874 574.066 625.44 573.311 626.949 574.254C628.459 575.198 628.837 574.821 628.082 573.122C627.516 571.612 626.572 569.159 625.817 567.649C624.307 563.308 617.136 560.666 612.418 562.742Z" fill="#155EEF"/>
<path d="M1107.25 528.018C1109.14 530.094 1111.78 531.793 1113.29 531.793C1117.82 531.793 1115.93 528.962 1109.89 526.697C1104.04 524.433 1104.04 524.433 1107.25 528.018Z" fill="#155EEF"/>
<path d="M1186.52 529.906C1185.95 530.849 1186.14 531.793 1187.27 531.793C1188.21 531.793 1189.72 530.849 1190.29 529.906C1190.86 528.773 1190.67 528.018 1189.54 528.018C1188.59 528.018 1187.08 528.773 1186.52 529.906Z" fill="#155EEF"/>
<path d="M1186.71 546.513C1186.14 547.645 1186.52 549.155 1187.65 549.721C1190.48 551.608 1192.37 549.155 1189.91 546.702C1188.59 545.381 1187.46 545.381 1186.71 546.513Z" fill="#155EEF"/>
<path d="M961.935 556.514C954.952 563.686 953.82 564.063 945.327 563.497L936.457 562.931V572.367C936.457 580.671 935.702 582.37 928.908 589.352L921.359 597.09L928.908 604.45C935.702 611.056 936.457 612.754 936.457 620.869V629.928H945.327C953.065 629.928 955.141 630.872 961.369 636.911L968.54 643.894L975.712 636.911C982.128 630.683 983.827 629.928 992.697 629.928H1002.51V620.114C1002.51 611.244 1003.27 609.546 1009.49 603.129L1016.48 595.958L1009.49 588.786C1003.45 582.558 1002.51 580.482 1002.51 572.745V563.875H993.641C985.714 563.875 983.827 562.931 977.033 556.326L969.295 548.777L961.935 556.514ZM988.923 567.649H996.849V575.575C996.849 581.992 997.981 584.823 1002.89 589.73L1008.93 595.958L1002.89 602.186C997.981 607.092 996.849 609.923 996.849 616.34V624.266H988.923C982.506 624.266 979.675 625.399 974.768 630.305L968.54 636.345L962.312 630.305C957.406 625.399 954.575 624.266 948.158 624.266H940.232V616.151C940.232 609.546 939.099 606.904 934.57 602.563L928.908 597.09L934.381 591.428C938.533 587.088 940.232 583.502 940.609 577.085L941.175 568.593L949.857 568.027C956.651 567.649 959.859 566.139 964.011 561.799L969.295 556.326L975.146 561.987C979.675 566.517 982.695 567.649 988.923 567.649Z" fill="#155EEF"/>
<path d="M965.331 587.466C962.878 588.41 960.991 590.674 960.991 592.562C960.991 594.26 959.858 596.147 958.726 596.714C956.839 597.657 956.839 598.035 958.726 598.978C959.858 599.544 960.991 601.62 960.991 603.508C960.991 607.66 967.596 609.547 973.258 606.905C977.787 604.829 980.618 596.714 977.598 594.826C976.655 594.26 976.277 592.75 976.655 591.429C977.976 588.032 970.238 585.201 965.331 587.466Z" fill="#155EEF"/>
<path d="M1112.92 559.157L1107.25 561.8L1113.48 561.988C1117.63 561.988 1119.52 561.045 1119.52 559.157C1119.52 557.648 1119.33 556.327 1119.14 556.515C1118.77 556.515 1116.12 557.836 1112.92 559.157Z" fill="#155EEF"/>
<path d="M1184.63 560.1C1189.72 562.365 1192.74 562.365 1189.35 560.1C1187.84 559.157 1185.2 558.402 1183.69 558.402C1181.8 558.402 1182.18 558.968 1184.63 560.1Z" fill="#155EEF"/>
<path d="M775.287 569.161C774.91 569.916 776.042 570.671 777.929 570.671C779.817 570.671 780.949 569.916 780.571 569.161C780.005 568.406 778.873 567.651 777.929 567.651C776.986 567.651 775.853 568.406 775.287 569.161Z" fill="#155EEF"/>
<path d="M1110.08 570.859C1082.53 573.501 1083.66 573.123 1083.66 579.351V585.202L1095.17 584.069L1106.88 583.126L1105.55 595.204L1104.23 607.282H1111.03H1117.63V598.223C1117.63 593.317 1118.2 584.824 1118.77 579.351C1119.52 573.878 1119.33 569.726 1118.39 569.915C1117.44 569.915 1113.67 570.481 1110.08 570.859Z" fill="#155EEF"/>
<path d="M1128.96 573.311C1128.96 575.387 1129.33 577.086 1129.71 577.086C1130.09 577.086 1130.84 575.387 1131.41 573.311C1131.97 571.235 1131.6 569.537 1130.65 569.537C1129.71 569.537 1128.96 571.235 1128.96 573.311Z" fill="#155EEF"/>
<path d="M1168.59 570.292C1168.59 570.669 1169.91 573.878 1171.42 577.275C1174.06 583.691 1175.19 581.615 1173.12 573.689C1172.17 570.292 1168.59 567.461 1168.59 570.292Z" fill="#155EEF"/>
<path d="M1182.74 582.182C1184.63 602.942 1185.57 607.282 1188.4 607.282C1192.74 607.282 1192.56 572.368 1188.21 570.67C1182.18 568.405 1181.61 569.537 1182.74 582.182Z" fill="#155EEF"/>
<path d="M1138.77 579.35L1136.51 585.39L1140.66 581.238C1143.49 578.596 1144.24 576.52 1142.92 575.199C1141.79 574.066 1140.28 575.387 1138.77 579.35Z" fill="#155EEF"/>
<path d="M1158.77 574.445C1158.02 575.389 1159.34 578.408 1161.23 580.862C1164.06 584.259 1164.63 584.447 1163.3 581.805C1162.36 579.729 1161.23 576.71 1160.66 575.2C1160.28 573.69 1159.34 573.313 1158.77 574.445Z" fill="#155EEF"/>
<path d="M1089.32 594.072C1083.28 595.015 1082.72 595.581 1082.72 601.054C1082.72 606.905 1083.1 607.282 1088.76 607.282C1093.66 607.282 1095.17 606.339 1096.12 602.753C1098.01 594.826 1096.5 593.128 1089.32 594.072Z" fill="#155EEF"/>
<path d="M709.988 600.677C709.988 605.962 710.743 607.283 713.574 607.283C715.65 607.283 718.481 607.849 720.179 608.415C722.633 609.359 723.199 608.037 723.199 601.81C723.199 594.261 723.01 594.072 716.594 594.072C710.366 594.072 709.988 594.449 709.988 600.677Z" fill="#155EEF"/>
<path d="M732.258 606.338L733.013 618.605L721.5 617.473L709.988 616.152V622.003C709.988 628.419 710.743 628.608 736.221 630.495L746.412 631.25L745.091 617.096C744.525 609.358 743.959 600.865 743.959 598.412C743.959 594.826 743.015 594.071 737.731 594.071H731.503L732.258 606.338Z" fill="#155EEF"/>
<path d="M811.143 606.715C810.388 613.887 809.634 622.379 809.067 625.776L808.312 631.815L819.07 630.872C846.623 628.23 845.869 628.418 845.869 622.002V616.151L833.79 617.472L821.712 618.605L822.844 606.338L823.788 594.071H817.937C812.276 594.071 812.276 594.071 811.143 606.715Z" fill="#155EEF"/>
<path d="M832.66 601.243C832.66 608.415 832.66 608.415 839.265 607.66C845.305 606.905 845.871 606.339 845.871 600.488C845.871 594.449 845.493 594.072 839.265 594.072C832.849 594.072 832.66 594.26 832.66 601.243Z" fill="#155EEF"/>
<path d="M787.744 620.304C785.291 623.702 784.347 626.344 785.479 627.099C786.612 627.665 788.31 625.966 789.254 623.135C790.386 620.304 791.707 617.285 792.273 616.53C794.727 612.567 791.518 615.398 787.744 620.304Z" fill="#155EEF"/>
<path d="M766.041 622.38C767.362 627.099 770.382 629.363 770.382 625.589C770.382 624.079 769.249 621.814 767.74 620.682C765.475 618.795 765.286 619.172 766.041 622.38Z" fill="#155EEF"/>
<path d="M755.283 626.531C755.283 629.551 756.227 631.815 757.17 631.815C759.624 631.815 759.624 628.041 757.17 624.266C755.661 622.002 755.283 622.568 755.283 626.531Z" fill="#155EEF"/>
<path d="M772.266 636.535C769.247 639.743 765.85 641.253 761.509 641.253C755.847 641.253 755.281 641.63 755.281 647.292C755.281 650.878 753.583 655.03 751.129 657.672L747.166 662.012L751.129 666.353C753.771 669.184 755.281 673.147 755.281 677.676C755.281 684.471 755.47 684.659 762.264 684.659C766.793 684.659 770.757 686.169 773.587 688.811L777.928 692.774L782.269 688.811C784.911 686.358 789.063 684.659 792.648 684.659C798.31 684.659 798.688 684.093 798.688 678.431C798.688 674.091 800.197 670.694 803.406 667.674L807.935 663.333L803.406 657.86C800.764 654.652 798.688 649.934 798.688 646.726C798.688 641.819 798.121 641.253 792.648 641.253C788.874 641.253 784.911 639.554 781.703 636.535L776.796 631.817L772.266 636.535ZM780.381 642.008C780.948 643.517 784.345 645.027 787.742 645.405C793.026 645.971 793.97 646.726 794.536 651.633C794.913 654.652 796.612 658.049 798.31 659.37C801.33 661.446 801.141 662.012 798.121 665.221C796.423 667.297 794.913 671.26 794.913 673.902C794.913 678.243 794.158 678.998 789.818 678.998C787.175 678.998 783.212 680.319 781.325 682.206C778.117 685.037 777.739 685.037 774.531 682.206C772.644 680.319 768.681 678.998 766.038 678.998C761.698 678.998 760.943 678.243 760.943 673.902C760.943 671.26 759.622 667.297 757.735 665.409C754.904 662.39 754.904 661.635 757.735 658.615C759.244 656.917 760.943 653.331 761.32 650.689C761.698 647.103 763.208 645.782 766.982 645.405C769.624 645.027 773.021 643.517 774.154 642.008C777.173 638.611 779.06 638.611 780.381 642.008Z" fill="#155EEF"/>
<path d="M774.155 653.897C769.436 655.029 767.172 662.389 769.814 667.673C771.135 670.316 772.267 671.637 772.267 670.693C772.267 669.749 773.588 670.127 775.098 671.448C777.363 673.335 778.495 673.335 780.76 671.448C782.27 670.127 783.591 669.749 783.591 670.693C783.591 671.637 784.723 670.316 786.044 667.673C787.931 664.276 787.931 662.012 786.61 659.181C785.478 657.105 784.534 655.218 784.534 655.218C784.534 654.274 776.419 653.142 774.155 653.897Z" fill="#155EEF"/>
<path d="M693.381 651.254L681.68 663.144L693.758 675.033L705.648 686.923L719.236 675.222C726.596 668.617 732.635 662.766 732.258 662.011C731.692 660.501 707.157 639.364 706.025 639.364C705.459 639.364 699.797 644.649 693.381 651.254Z" fill="#155EEF"/>
<path d="M738.298 641.252C739.808 642.195 742.45 642.95 743.96 642.95C745.847 642.95 745.47 642.384 743.016 641.252C737.921 638.987 734.901 638.987 738.298 641.252Z" fill="#155EEF"/>
<path d="M810.012 641.252C805.482 644.083 808.691 644.838 814.73 642.196C819.07 640.309 819.448 639.554 816.617 639.554C814.541 639.554 811.521 640.12 810.012 641.252Z" fill="#155EEF"/>
<path d="M836.056 650.312C828.884 656.162 823.034 661.635 822.845 662.201C822.467 662.956 828.507 668.618 836.244 675.034L850.21 686.735L862.288 674.846L874.178 663.145L862.477 651.255C856.06 644.65 850.21 639.366 849.644 639.366C849.078 639.366 843.038 644.272 836.056 650.312Z" fill="#155EEF"/>
<path d="M735.843 652.953C739.052 655.972 740.75 656.539 742.26 655.029C743.581 653.708 742.449 652.387 737.919 650.877L731.691 648.612L735.843 652.953Z" fill="#155EEF"/>
<path d="M816.616 651.444C813.597 652.576 811.898 654.274 813.031 654.841C813.974 655.595 816.994 654.463 819.447 652.387C824.92 648.235 824.354 648.046 816.616 651.444Z" fill="#155EEF"/>
<path d="M737.166 672.58C733.769 675.222 733.769 675.411 737.92 673.335C740.185 672.202 742.072 670.881 742.072 670.504C742.072 668.994 741.129 669.371 737.166 672.58Z" fill="#155EEF"/>
<path d="M811.898 671.26C811.898 672.204 813.408 673.336 815.295 673.903C816.994 674.28 820.202 675.412 822.278 676.167C825.109 677.3 824.732 676.545 820.957 673.714C815.862 669.373 811.898 668.43 811.898 671.26Z" fill="#155EEF"/>
<path d="M1084.04 684.47L1076.3 695.416L1083.1 705.607C1086.87 711.269 1090.27 716.176 1090.65 716.742C1091.78 717.874 1099.52 708.249 1103.67 700.511C1106.88 694.661 1106.88 694.661 1099.33 684.092L1091.78 673.524L1084.04 684.47Z" fill="#155EEF"/>
<path d="M738.298 683.904C735.655 685.414 735.089 686.357 736.977 685.791C738.864 685.225 742.072 684.659 744.148 684.659C746.035 684.659 747.734 683.715 747.734 682.771C747.734 680.129 743.771 680.507 738.298 683.904Z" fill="#155EEF"/>
<path d="M808.125 682.772C808.125 683.716 810.012 684.659 812.466 684.659C815.863 684.659 816.051 684.282 813.787 682.772C810.201 680.319 808.125 680.319 808.125 682.772Z" fill="#155EEF"/>
<path d="M910.98 690.32C909.093 692.396 905.507 694.095 903.054 694.095C899.845 694.095 898.713 695.227 898.713 698.247C898.713 700.511 897.015 704.097 894.939 706.362L891.164 710.514L894.939 713.911C897.015 715.798 898.713 719.761 898.713 722.781C898.713 727.31 899.468 728.065 903.809 728.065C906.451 728.065 910.414 729.386 912.301 731.273C915.509 734.104 915.887 734.104 919.095 731.273C920.982 729.386 924.946 728.065 927.588 728.065C931.928 728.065 932.683 727.31 932.683 722.781C932.683 719.761 934.382 715.798 936.458 713.911L940.232 710.514L936.458 706.362C934.382 704.097 932.683 700.511 932.683 698.247C932.683 695.227 931.551 694.095 928.343 694.095C925.889 694.095 922.304 692.396 920.416 690.32C918.529 688.244 916.453 686.546 915.698 686.546C914.943 686.546 912.867 688.244 910.98 690.32Z" fill="#155EEF"/>
<path d="M794.914 693.53C795.103 694.284 796.235 697.115 797.934 699.757L800.576 704.476L800.198 699.003C799.821 695.983 798.5 693.152 797.367 692.586C796.046 692.209 794.914 692.586 794.914 693.53Z" fill="#155EEF"/>
<path d="M719.991 695.416C709.988 696.171 709.988 696.171 709.988 702.587V708.815L721.5 707.871L733.013 706.739L732.258 718.44L731.692 729.952H737.542C743.392 729.952 743.392 729.952 744.525 717.119C745.28 710.136 745.846 702.21 745.846 699.19C745.846 693.528 746.223 693.717 719.991 695.416Z" fill="#155EEF"/>
<path d="M756.604 695.416C755.849 695.982 755.283 697.869 755.283 699.568C755.472 702.021 755.849 702.021 757.359 699.19C759.435 695.605 758.869 692.963 756.604 695.416Z" fill="#155EEF"/>
<path d="M810.202 708.438C810.957 716.741 811.712 724.857 811.712 726.555C811.9 729.009 813.41 729.952 817.751 729.952H823.79L822.658 718.44L821.714 706.739L833.792 707.871L845.871 709.004V702.587C845.871 696.359 845.493 695.982 839.832 695.982C836.435 695.982 828.131 695.416 821.337 694.849L808.881 693.717L810.202 708.438Z" fill="#155EEF"/>
<path d="M765.284 703.719C763.02 709.57 763.02 709.57 766.605 706.361C768.681 704.474 770.38 701.832 770.38 700.322C770.38 695.793 767.549 697.68 765.284 703.719Z" fill="#155EEF"/>
<path d="M787.365 703.342C787.365 704.475 788.12 705.796 789.252 706.362C790.385 706.928 790.574 706.173 790.007 704.663C788.686 701.266 787.365 700.7 787.365 703.342Z" fill="#155EEF"/>
<path d="M1063.09 715.044C1058.56 721.271 1055.35 726.744 1055.73 726.933C1055.92 727.311 1064.22 730.141 1073.85 733.35L1091.4 739.2L1109.9 733.161L1128.58 727.122L1120.46 715.232L1112.35 703.154L1102.72 717.497C1097.25 725.423 1092.34 731.84 1091.59 731.84C1090.83 731.84 1088.76 729.575 1087.06 726.556C1085.36 723.725 1081.02 717.497 1077.62 712.59L1071.21 703.531L1063.09 715.044Z" fill="#155EEF"/>
<path d="M979.865 724.102V737.124L992.321 741.276C999.115 743.54 1004.97 745.05 1005.53 744.484C1006.1 744.107 1005.91 738.068 1005.15 731.085L1003.83 718.629L993.642 714.854C988.169 712.778 982.696 711.08 981.752 711.08C980.62 711.08 979.865 716.93 979.865 724.102Z" fill="#155EEF"/>
<path d="M1183.31 717.119C1178.21 718.817 1178.02 719.383 1178.02 732.028C1178.02 739.199 1178.4 745.05 1178.78 745.05C1178.97 745.05 1181.99 744.106 1185.38 742.974C1191.23 740.898 1191.23 740.709 1191.23 727.876C1191.23 720.704 1190.67 714.854 1189.91 715.043C1188.97 715.043 1186.14 715.986 1183.31 717.119Z" fill="#155EEF"/>
<path d="M709.988 723.347C709.988 729.575 710.366 729.952 716.594 729.952C722.822 729.952 723.199 729.575 723.199 723.347C723.199 717.119 722.822 716.741 716.594 716.741C710.366 716.741 709.988 717.119 709.988 723.347Z" fill="#155EEF"/>
<path d="M832.282 723.347C833.036 729.386 833.603 729.952 839.453 729.952C845.492 729.952 845.87 729.575 845.87 723.347C845.87 716.93 845.681 716.741 838.698 716.741C831.527 716.741 831.527 716.741 832.282 723.347Z" fill="#155EEF"/>
<path d="M1145 731.84C1144.43 732.973 1145.19 733.161 1146.7 732.595C1150.09 731.274 1150.66 729.953 1148.02 729.953C1146.89 729.953 1145.56 730.708 1145 731.84Z" fill="#155EEF"/>
<path d="M1061.2 741.465C1063.66 746.372 1066.87 747.504 1072.34 745.428C1076.49 743.918 1076.11 743.541 1068 740.71C1059.32 737.69 1059.13 737.879 1061.2 741.465Z" fill="#155EEF"/>
<path d="M1113.86 740.71C1106.88 743.353 1106.12 743.919 1109.14 745.24C1115.75 747.882 1118.95 747.127 1122.16 742.22C1125.75 736.747 1125.37 736.747 1113.86 740.71Z" fill="#155EEF"/>
<path d="M1037.8 750.524C1032.52 758.45 1032.52 758.639 1036.86 757.318C1043.28 755.43 1044.41 753.732 1043.65 747.693L1043.09 742.408L1037.8 750.524Z" fill="#155EEF"/>
<path d="M1138.77 748.447C1138.39 753.165 1139.34 754.486 1144.05 755.996C1151.04 758.45 1151.04 757.128 1144.43 749.202L1139.15 742.974L1138.77 748.447Z" fill="#155EEF"/>
<path d="M1128.2 747.88C1127.64 749.39 1128.01 750.711 1128.96 750.711C1130.09 750.711 1130.84 749.39 1130.84 747.88C1130.84 746.37 1130.47 745.049 1130.09 745.049C1129.71 745.049 1128.96 746.37 1128.2 747.88Z" fill="#155EEF"/>
<path d="M1076.68 753.165L1070.64 755.43L1078.94 768.452L1087.44 781.474V766.187C1087.44 749.391 1087.25 749.391 1076.68 753.165Z" fill="#155EEF"/>
<path d="M1096.87 765.243V779.964L1105.18 767.697L1113.29 755.43L1107.44 753.165C1097.06 749.391 1096.87 749.579 1096.87 765.243Z" fill="#155EEF"/>
<path d="M1056.86 759.582C1054.03 760.337 1053.66 762.601 1054.79 782.417C1055.35 794.496 1056.3 805.064 1057.05 805.63C1057.62 806.385 1062.15 808.084 1066.87 809.594L1075.36 812.613L1080.64 804.309C1083.47 799.78 1085.55 795.251 1085.17 794.307C1083.85 790.91 1061.96 758.261 1061.02 758.45C1060.45 758.638 1058.56 759.016 1056.86 759.582Z" fill="#155EEF"/>
<path d="M1035.54 766.187C1032.52 767.319 1029.5 768.452 1029.12 768.829C1028.37 769.584 1042.14 790.155 1044.41 791.476C1045.16 792.042 1045.92 786.003 1045.92 778.265C1045.92 762.79 1045.73 762.601 1035.54 766.187Z" fill="#155EEF"/>
<path d="M1138.01 778.454C1137.64 786.569 1137.45 793.363 1137.45 793.552C1137.64 793.74 1141.6 788.456 1146.51 781.662C1155.19 769.773 1155.19 769.395 1151.04 767.885C1138.01 762.978 1138.77 762.412 1138.01 778.454Z" fill="#155EEF"/>
<path d="M826.054 775.247C821.902 779.588 818.882 780.909 813.409 780.909C806.426 780.909 806.238 781.097 806.238 788.08C806.238 793.553 804.916 796.573 800.576 800.725L794.914 806.198L800.576 812.048C805.105 816.577 806.238 819.597 806.238 825.825V833.751H814.164C820.203 833.751 823.411 834.884 827.375 838.847L832.659 843.942L837.943 838.847C841.906 834.884 845.115 833.751 851.154 833.751H859.08V825.636C859.08 819.031 860.213 816.389 864.742 812.048L870.404 806.575L864.742 800.725C860.59 796.384 859.08 793.176 859.08 787.891C859.08 781.097 858.891 780.909 851.909 780.909C846.436 780.909 843.416 779.588 839.264 775.247C836.245 772.039 833.225 769.585 832.659 769.585C832.093 769.585 829.073 772.039 826.054 775.247ZM837.377 778.833C839.264 781.097 843.605 782.796 848.512 783.173C856.061 783.739 856.249 783.928 856.249 790.722C856.249 795.44 857.759 799.215 860.779 802.423C865.308 807.141 865.308 807.519 861.911 809.972C859.835 811.482 857.948 815.823 857.382 820.729C856.249 828.844 856.061 829.033 848.889 829.599C844.36 829.977 840.019 831.675 838.132 833.94C834.169 838.469 832.281 838.469 827.941 833.751C825.676 831.298 822.09 829.977 817.183 829.977C810.201 829.977 810.012 829.788 810.012 822.805C810.012 817.898 808.691 814.313 806.238 812.048C801.519 807.707 801.519 805.065 806.049 800.725C808.125 799.026 810.012 794.497 810.389 790.534C810.956 784.306 811.333 783.739 817.183 783.551C820.958 783.551 824.921 781.852 827.563 779.399C832.47 774.303 833.036 774.303 837.377 778.833Z" fill="#155EEF"/>
<path d="M829.829 786.571C827.942 788.646 823.979 790.345 820.959 790.345C816.43 790.345 815.675 791.1 815.675 795.441C815.675 798.083 814.354 802.046 812.467 803.933C809.636 807.141 809.636 807.519 812.467 810.727C814.354 812.614 815.675 816.578 815.675 819.22C815.675 823.56 816.43 824.315 820.959 824.315C823.979 824.315 827.942 826.014 829.829 828.09L833.227 831.864L837.378 828.09C839.643 826.014 843.606 824.315 846.248 824.315C850.212 824.315 850.967 823.56 850.212 820.541C849.457 817.899 850.778 814.879 853.42 812.048L857.761 807.33L853.797 802.989C851.533 800.536 849.646 796.762 849.646 794.497C849.646 791.477 848.513 790.345 845.494 790.345C843.229 790.345 839.643 788.646 837.378 786.571L833.227 782.796L829.829 786.571ZM840.964 801.48C840.587 801.857 841.153 803.367 842.285 804.877C843.984 806.764 843.795 808.085 842.097 810.161C840.775 811.671 840.398 812.992 841.342 812.992C842.285 812.992 840.964 814.124 838.322 815.445C830.018 819.597 822.092 813.181 824.545 803.933C825.678 799.215 832.66 796.384 837.756 798.838C840.021 799.781 841.53 801.102 840.964 801.48Z" fill="#155EEF"/>
<path d="M998.736 778.455C990.81 781.286 990.621 781.663 994.962 783.173C1000.43 785.249 1003.45 784.117 1006.29 779.21C1007.42 776.945 1007.98 775.247 1007.79 775.435C1007.42 775.435 1003.45 776.945 998.736 778.455Z" fill="#155EEF"/>
<path d="M1016.1 780.908C1013.83 783.927 1011.95 787.136 1011.95 787.891C1011.95 788.834 1017.8 791.665 1025.16 794.496C1032.33 797.138 1037.8 798.459 1037.05 797.138C1034.78 793.552 1021.38 775.246 1020.82 775.246C1020.44 775.246 1018.36 777.699 1016.1 780.908Z" fill="#155EEF"/>
<path d="M1152.74 787.702C1146.7 796.006 1144.81 799.781 1147.26 799.026C1149.15 798.271 1155.38 795.817 1161.04 793.741C1166.7 791.666 1171.8 789.59 1172.17 789.212C1173.12 788.457 1164.25 775.247 1162.74 775.247C1162.17 775.247 1157.64 780.908 1152.74 787.702Z" fill="#155EEF"/>
<path d="M1177.84 780.719C1181.61 785.815 1182.55 786.381 1186.14 784.494C1188.4 783.173 1190.67 782.04 1191.05 781.663C1191.8 781.097 1186.71 778.832 1178.21 776.19L1173.68 774.869L1177.84 780.719Z" fill="#155EEF"/>
<path d="M959.104 791.098C952.31 792.985 946.459 794.873 946.082 795.25C945.516 795.628 948.913 800.534 965.143 821.86C966.464 823.37 963.067 825.257 953.064 828.088C930.418 834.505 931.361 833.184 940.609 845.451C945.138 851.301 949.101 856.208 949.667 856.208C950.234 856.208 955.518 849.414 961.557 841.11L972.503 826.012L971.937 806.574L971.371 787.324L959.104 791.098Z" fill="#155EEF"/>
<path d="M991.188 792.232C991.188 794.685 994.585 796.384 995.717 794.308C996.283 793.364 995.528 792.232 994.018 791.477C992.509 790.911 991.188 791.288 991.188 792.232Z" fill="#155EEF"/>
<path d="M981.75 803.555V813.558L985.713 808.462L989.488 803.555L985.713 798.648L981.75 793.553V803.555Z" fill="#155EEF"/>
</g>
</svg>
